<?xml version="1.0" encoding="utf-8"?>
<!-- Generator: Adobe Illustrator 25.1.0, SVG Export Plug-In . SVG Version: 6.00 Build 0)  -->
<svg version="1.1" id="Layer_1" xmlns="http://www.w3.org/2000/svg" xmlns:xlink="http://www.w3.org/1999/xlink" x="0px" y="0px"
	 viewBox="0 0 800 800" style="enable-background:new 0 0 800 800;" xml:space="preserve">
<style type="text/css">
	.st0{fill:#120136;}
	.st1{clip-path:url(#SVGID_2_);}
	.st2{fill:#120136;stroke:#FFFFFF;stroke-width:11;stroke-miterlimit:10;}
	.st3{fill:none;}
	.st4{fill:url(#SVGID_3_);}
	.st5{fill:url(#SVGID_4_);}
	.st6{fill:url(#SVGID_5_);}
	.st7{fill:url(#SVGID_6_);}
	.st8{fill:url(#SVGID_7_);}
	.st9{fill:#9D0191;}
	.st10{fill:url(#SVGID_8_);}
	.st11{fill:#FF675C;}
	.st12{fill:url(#SVGID_9_);}
	.st13{fill:#FFFFFF;}
	.st14{fill:none;stroke:#FFFFFF;stroke-width:11;stroke-miterlimit:10;}
</style>
<rect x="-46" y="-28" className="st0" width="874" height="844"/>
<g>
	<defs>
		<circle id="SVGID_1_" cx="400" cy="400" r="396"/>
	</defs>
	<clipPath id="SVGID_2_">
		<use xlink:href="#SVGID_1_"  style="overflow:visible;"/>
	</clipPath>
	<g className="st1">
		<circle className="st2" cx="400" cy="400" r="396"/>
		<circle className="st3" cx="400" cy="399.1" r="415.3"/>
		<linearGradient id="SVGID_3_" gradientUnits="userSpaceOnUse" x1="190.7685" y1="579.2119" x2="609.2315" y2="579.2119">
			<stop  offset="0" style="stop-color:#FF4033"/>
			<stop  offset="0.1236" style="stop-color:#F73E37"/>
			<stop  offset="0.3164" style="stop-color:#E13840"/>
			<stop  offset="0.5544" style="stop-color:#BD2F50"/>
			<stop  offset="0.8257" style="stop-color:#8B2165"/>
			<stop  offset="1" style="stop-color:#671875"/>
		</linearGradient>
		<path className="st4" d="M190.8,610.8v-63.2h24.3c5.2,0,9.8,0.8,13.8,2.5c4,1.7,7.3,3.9,10,6.8c2.7,2.8,4.7,6.2,6,10
			c1.4,3.8,2,7.9,2,12.2c0,4.8-0.8,9.1-2.3,13c-1.5,3.9-3.7,7.2-6.4,10c-2.8,2.8-6.1,4.9-10.1,6.4c-3.9,1.5-8.3,2.3-13.1,2.3H190.8z
			 M229.3,579.1c0-2.4-0.3-4.7-1-6.7c-0.7-2-1.6-3.7-2.8-5.2c-1.2-1.4-2.7-2.5-4.5-3.3c-1.8-0.8-3.8-1.2-6-1.2h-6.9v32.9h6.9
			c2.3,0,4.3-0.4,6-1.2c1.8-0.8,3.3-2,4.5-3.5c1.2-1.5,2.1-3.2,2.8-5.2C229,583.7,229.3,581.5,229.3,579.1z M268.3,547.6h15.8
			l21.9,63.2h-17.6l-3.8-12.4h-16.8l-3.7,12.4h-17.7L268.3,547.6z M281.8,586.9l-5.6-19.6l-5.9,19.6H281.8z M354.6,562.8h-18.1v48
			h-17.3v-48h-18.2v-15.1h53.7V562.8z M371.5,547.6h15.8l21.9,63.2h-17.6l-3.8-12.4H371l-3.7,12.4h-17.7L371.5,547.6z M385.1,586.9
			l-5.6-19.6l-5.9,19.6H385.1z M476.9,595.7v15.1h-45v-63.2h44.2v15.1h-26.9v8.9h23v14.1h-23v10H476.9z M502.3,579.7v31H485v-63.2
			h13.5l25.4,32.1v-32.1h17.3v63.2h-13.8L502.3,579.7z M594.9,605.5c-4.5,3.8-9.7,5.7-15.6,5.7c-4.1,0-8-0.7-11.7-2.2
			s-7-3.6-9.8-6.4c-2.8-2.8-5-6.2-6.7-10.2c-1.7-4-2.5-8.6-2.5-13.8c0-4.4,0.8-8.6,2.5-12.4c1.7-3.8,3.9-7.1,6.8-10
			c2.9-2.8,6.3-5,10.3-6.7c3.9-1.6,8.2-2.4,12.8-2.4c2.8,0,5.6,0.3,8.2,0.9c2.6,0.6,5,1.5,7.2,2.8c2.2,1.2,4.2,2.7,6,4.4
			c1.8,1.7,3.2,3.6,4.4,5.7l-12.9,9.9c-1.2-2.5-3.1-4.5-5.6-6s-5.1-2.3-7.9-2.3c-2.1,0-4,0.4-5.7,1.2c-1.7,0.8-3.2,2-4.4,3.5
			c-1.2,1.5-2.2,3.2-2.9,5.3c-0.7,2-1.1,4.3-1.1,6.7c0,2.5,0.4,4.7,1.1,6.8c0.7,2,1.7,3.8,3,5.2c1.3,1.5,2.8,2.6,4.6,3.4
			c1.8,0.8,3.8,1.2,6,1.2c5,0,9.5-2.1,13.3-6.2h-10.9v-12.5h26v33.6h-14.3V605.5z"/>
		<g>
			<g>
				<linearGradient id="SVGID_4_" gradientUnits="userSpaceOnUse" x1="161.6263" y1="391.3463" x2="292.5965" y2="391.3463">
					<stop  offset="0" style="stop-color:#FF4033"/>
					<stop  offset="0.6112" style="stop-color:#862067"/>
					<stop  offset="1" style="stop-color:#3E0D86"/>
				</linearGradient>
				<path className="st5" d="M270.9,500.6c-60.2,0-109.2-49-109.2-109.2s49-109.2,109.2-109.2c12,0,21.7,9.7,21.7,21.7
					c0,12-9.7,21.7-21.7,21.7c-36.3,0-65.8,29.5-65.8,65.8s29.5,65.8,65.8,65.8c12,0,21.7,9.7,21.7,21.7
					C292.6,490.8,282.9,500.6,270.9,500.6z"/>
			</g>
			<g>
				<linearGradient id="SVGID_5_" gradientUnits="userSpaceOnUse" x1="418.23" y1="440.1888" x2="636.6967" y2="440.1888">
					<stop  offset="7.973710e-02" style="stop-color:#FF4033"/>
					<stop  offset="0.1762" style="stop-color:#F53D37"/>
					<stop  offset="0.3383" style="stop-color:#DB3742"/>
					<stop  offset="0.5461" style="stop-color:#B12B55"/>
					<stop  offset="0.7888" style="stop-color:#761C6E"/>
					<stop  offset="1" style="stop-color:#3E0D86"/>
				</linearGradient>
				<path className="st6" d="M527.5,505.7c-60.2,0-109.2-49-109.2-109.2c0-12,9.7-21.7,21.7-21.7c12,0,21.7,9.7,21.7,21.7
					c0,36.3,29.5,65.8,65.8,65.8c36.3,0,65.8-29.5,65.8-65.8c0-12,9.7-21.7,21.7-21.7c12,0,21.7,9.7,21.7,21.7
					C636.7,456.7,587.7,505.7,527.5,505.7z"/>
			</g>
			<linearGradient id="SVGID_6_" gradientUnits="userSpaceOnUse" x1="424.8323" y1="243.5243" x2="633.1575" y2="187.7037">
				<stop  offset="0" style="stop-color:#FF4033"/>
				<stop  offset="0.1048" style="stop-color:#F53D37"/>
				<stop  offset="0.281" style="stop-color:#DB3742"/>
				<stop  offset="0.5068" style="stop-color:#B12B55"/>
				<stop  offset="0.7705" style="stop-color:#761C6E"/>
				<stop  offset="1" style="stop-color:#3E0D86"/>
			</linearGradient>
			<path className="st7" d="M527.6,106.8C527.6,106.8,527.6,106.8,527.6,106.8c-0.1,0-0.1,0-0.2,0c-60.2,0-109.2,49-109.2,109.2
				c0,12,9.7,21.7,21.7,21.7s21.7-9.7,21.7-21.7c0-36.3,29.5-65.8,65.8-65.8c0,0,0.1,0,0.1,0c0,0,0.1,0,0.1,0
				c36.3,0,65.8,29.5,65.8,65.8s-29.5,65.8-65.8,65.8c-12,0-21.7,9.7-21.7,21.7c0,12,9.7,21.7,21.7,21.7
				c60.2,0,109.2-49,109.2-109.2S587.9,106.8,527.6,106.8z"/>
			<g>
				<linearGradient id="SVGID_7_" gradientUnits="userSpaceOnUse" x1="310.5081" y1="500.5797" x2="310.5081" y2="-31.3793">
					<stop  offset="0" style="stop-color:#FF4033"/>
					<stop  offset="0.1962" style="stop-color:#BB2E50"/>
					<stop  offset="0.4094" style="stop-color:#781C6D"/>
					<stop  offset="0.5644" style="stop-color:#4E117F"/>
					<stop  offset="0.6435" style="stop-color:#3E0D86"/>
				</linearGradient>
				<path className="st8" d="M266.8,500.6C266.8,500.6,266.8,500.6,266.8,500.6c-12,0-21.7-9.7-21.7-21.7c0-12,9.7-21.7,21.7-21.7l0,0
					c17.6,0,34.1-6.8,46.5-19.3c12.4-12.4,19.3-28.9,19.3-46.5v-401c0-12,9.7-21.7,21.7-21.7c12,0,21.7,9.7,21.7,21.7v401
					c0,29.2-11.4,56.6-32,77.2C323.4,489.2,295.9,500.6,266.8,500.6z"/>
			</g>
			<circle className="st9" cx="616.6" cy="393.7" r="21.7"/>
			<g>
				<linearGradient id="SVGID_8_" gradientUnits="userSpaceOnUse" x1="249.3983" y1="303.8508" x2="548.5625" y2="303.8508">
					<stop  offset="0" style="stop-color:#FF4033"/>
					<stop  offset="0.6112" style="stop-color:#862067"/>
					<stop  offset="1" style="stop-color:#3E0D86"/>
				</linearGradient>
				<path className="st10" d="M526.8,325.6H271.1c-12,0-21.7-9.7-21.7-21.7s9.7-21.7,21.7-21.7h255.7c12,0,21.7,9.7,21.7,21.7
					S538.8,325.6,526.8,325.6z"/>
			</g>
			<circle className="st9" cx="266.8" cy="303.9" r="21.7"/>
			<circle className="st9" cx="527.8" cy="303.9" r="21.7"/>
			<circle className="st11" cx="266.8" cy="478.8" r="21.7"/>
			<g>
				<linearGradient id="SVGID_9_" gradientUnits="userSpaceOnUse" x1="439.9678" y1="415.0464" x2="439.9678" y2="194.0867">
					<stop  offset="0" style="stop-color:#FF4033"/>
					<stop  offset="0.1048" style="stop-color:#F53D37"/>
					<stop  offset="0.281" style="stop-color:#DB3742"/>
					<stop  offset="0.5068" style="stop-color:#B12B55"/>
					<stop  offset="0.7705" style="stop-color:#761C6E"/>
					<stop  offset="1" style="stop-color:#3E0D86"/>
				</linearGradient>
				<path className="st12" d="M440,415c-12,0-21.7-9.7-21.7-21.7V215.8c0-12,9.7-21.7,21.7-21.7s21.7,9.7,21.7,21.7v177.5
					C461.7,405.3,452,415,440,415z"/>
			</g>
			<circle className="st11" cx="440" cy="214" r="21.7"/>
		</g>
		<g>
			<path className="st13" d="M264.9,633.5h3.6l24.6,58.3h-4.4l-8.1-19.2h-27.8l-8.1,19.2h-4.5L264.9,633.5z M279.4,669.1l-12.7-30.5
				l-13,30.5H279.4z"/>
			<path className="st13" d="M313,692.6c-9.1,0-13.6-6.3-13.6-18.9v-24.6h4.1v24c0,10.5,3.6,15.8,10.8,15.8c1.8,0,3.6-0.3,5.3-0.9
				c1.7-0.6,3.3-1.5,4.8-2.6c1.5-1.1,2.8-2.5,3.9-4.1c1.1-1.6,2-3.3,2.7-5.3v-26.9h4.1V686c0,1.4,0.6,2.1,1.7,2.1v3.7
				c-0.3,0.1-0.5,0.1-0.7,0.1c-0.2,0-0.4,0-0.5,0c-1.1,0-2.1-0.3-2.9-1c-0.8-0.7-1.3-1.6-1.3-2.8v-6.4c-1.9,3.4-4.4,6.1-7.7,8
				C320.3,691.6,316.7,692.6,313,692.6z"/>
			<path className="st13" d="M361.5,692.6c-3.3,0-6.4-0.5-9.4-1.6c-3-1.1-5.6-2.7-7.9-4.9l2.1-2.8c2.3,2.1,4.7,3.6,7.1,4.6
				c2.5,1,5.2,1.5,8.1,1.5c3.7,0,6.7-0.8,9-2.3c2.3-1.6,3.4-3.7,3.4-6.5c0-1.3-0.3-2.4-0.9-3.3c-0.6-0.9-1.4-1.7-2.6-2.3
				c-1.1-0.6-2.6-1.2-4.3-1.7c-1.7-0.5-3.7-1-5.9-1.6c-2.4-0.5-4.5-1.1-6.3-1.6c-1.8-0.5-3.2-1.2-4.4-2c-1.1-0.8-2-1.7-2.6-2.8
				c-0.6-1.1-0.9-2.5-0.9-4.2c0-2.1,0.4-4,1.2-5.6c0.8-1.6,2-2.9,3.4-3.9c1.4-1,3.1-1.8,5-2.3c1.9-0.5,3.9-0.8,6-0.8
				c3.3,0,6.3,0.6,8.9,1.7c2.6,1.1,4.6,2.6,6,4.3l-2.3,2.2c-1.4-1.6-3.3-2.9-5.5-3.7c-2.3-0.8-4.7-1.2-7.3-1.2
				c-1.6,0-3.1,0.2-4.5,0.5c-1.4,0.3-2.6,0.8-3.7,1.6c-1,0.7-1.9,1.6-2.5,2.7c-0.6,1.1-0.9,2.5-0.9,4c0,1.3,0.2,2.3,0.6,3
				c0.4,0.8,1.1,1.4,2,2c0.9,0.5,2.1,1,3.5,1.4c1.4,0.4,3.1,0.9,5.1,1.4c2.7,0.7,5.1,1.3,7.1,1.9c2.1,0.6,3.8,1.3,5.2,2.2
				c1.4,0.9,2.5,1.9,3.2,3.1c0.7,1.2,1.1,2.7,1.1,4.6c0,3.8-1.5,6.9-4.5,9.2C370.4,691.4,366.4,692.6,361.5,692.6z"/>
			<path className="st13" d="M406.4,689.7c-0.2,0.1-0.6,0.3-1.1,0.6c-0.5,0.3-1.2,0.6-2,0.9c-0.8,0.3-1.7,0.5-2.7,0.7
				c-1,0.2-2.1,0.3-3.2,0.3c-1.1,0-2.2-0.2-3.2-0.5c-1-0.3-1.9-0.8-2.7-1.5c-0.8-0.7-1.4-1.4-1.8-2.4c-0.4-0.9-0.7-2-0.7-3.3v-32.2
				h-6v-3.4h6v-14.6h4.1v14.6h9.9v3.4h-9.9v31.2c0,1.6,0.5,2.8,1.6,3.6c1.1,0.8,2.3,1.2,3.7,1.2c1.7,0,3.2-0.3,4.4-0.9
				c1.2-0.6,2-0.9,2.3-1.1L406.4,689.7z"/>
			<path className="st13" d="M433.9,652.7c-3.8,0.1-7.2,1.2-10.1,3.4c-2.9,2.2-4.9,5.1-6,8.9v26.7h-4.1v-42.7h3.9v10.5
				c1.5-3,3.4-5.5,5.9-7.3c2.4-1.9,5-3,7.8-3.2c0.5-0.1,1-0.1,1.5-0.1c0.4,0,0.8,0,1.1,0V652.7z"/>
			<path className="st13" d="M451.6,692.6c-2,0-3.8-0.3-5.5-1c-1.7-0.7-3.2-1.6-4.5-2.8c-1.3-1.2-2.3-2.6-3-4.2
				c-0.7-1.6-1.1-3.4-1.1-5.2c0-1.9,0.4-3.6,1.3-5.1c0.9-1.5,2.1-2.9,3.7-4c1.6-1.1,3.4-2,5.6-2.6c2.2-0.6,4.6-0.9,7.2-0.9
				c2.3,0,4.6,0.2,6.9,0.6c2.3,0.4,4.4,1,6.3,1.7v-4.2c0-4-1.1-7.3-3.4-9.6s-5.4-3.6-9.4-3.6c-2.1,0-4.3,0.4-6.6,1.3
				c-2.3,0.9-4.7,2.1-7.1,3.8l-1.6-2.8c5.5-3.7,10.7-5.6,15.6-5.6c5.1,0,9.2,1.5,12.1,4.5c3,3,4.4,7.1,4.4,12.4V686
				c0,1.4,0.6,2.1,1.8,2.1v3.7c-0.3,0.1-0.6,0.1-0.9,0.1c-0.3,0-0.6,0-0.8,0c-1.1,0-2-0.4-2.6-1.1c-0.7-0.7-1-1.6-1.1-2.7v-3.5
				c-2,2.6-4.5,4.5-7.6,5.9C458.4,691.9,455.1,692.6,451.6,692.6z M452.4,689.3c3.2,0,6.1-0.6,8.7-1.8c2.7-1.2,4.7-2.8,6.1-4.8
				c0.9-1.1,1.3-2.2,1.3-3.3v-7.6c-2-0.8-4-1.3-6.2-1.7c-2.1-0.4-4.4-0.6-6.6-0.6c-2.1,0-4.1,0.2-5.8,0.7c-1.8,0.5-3.3,1.1-4.5,1.9
				c-1.3,0.8-2.2,1.8-2.9,3c-0.7,1.2-1,2.5-1,3.9c0,1.4,0.3,2.8,0.8,4c0.5,1.3,1.3,2.3,2.3,3.2c1,0.9,2.1,1.6,3.5,2.1
				C449.4,689,450.9,689.3,452.4,689.3z"/>
			<path className="st13" d="M485.5,631.8h4.2v51.5c0,1.6,0.5,2.8,1.4,3.8c0.9,0.9,2.1,1.4,3.7,1.4c0.6,0,1.3-0.1,2.2-0.2
				c0.8-0.1,1.6-0.3,2.3-0.6l0.8,3.3c-0.9,0.4-2.1,0.7-3.4,0.9c-1.4,0.2-2.5,0.4-3.5,0.4c-2.3,0-4.1-0.7-5.5-2.1
				c-1.4-1.4-2.1-3.3-2.1-5.6V631.8z"/>
			<path className="st13" d="M506.4,639.4v-7.5h4.1v7.5H506.4z M506.4,691.7v-42.7h4.1v42.7H506.4z"/>
			<path className="st13" d="M533.9,692.6c-2,0-3.8-0.3-5.5-1c-1.7-0.7-3.2-1.6-4.5-2.8c-1.3-1.2-2.3-2.6-3-4.2
				c-0.7-1.6-1.1-3.4-1.1-5.2c0-1.9,0.4-3.6,1.3-5.1c0.9-1.5,2.1-2.9,3.7-4c1.6-1.1,3.4-2,5.6-2.6c2.2-0.6,4.6-0.9,7.2-0.9
				c2.3,0,4.6,0.2,6.9,0.6c2.3,0.4,4.4,1,6.3,1.7v-4.2c0-4-1.1-7.3-3.4-9.6s-5.4-3.6-9.4-3.6c-2.1,0-4.3,0.4-6.6,1.3
				c-2.3,0.9-4.7,2.1-7.1,3.8l-1.6-2.8c5.5-3.7,10.7-5.6,15.6-5.6c5.1,0,9.2,1.5,12.1,4.5c3,3,4.4,7.1,4.4,12.4V686
				c0,1.4,0.6,2.1,1.8,2.1v3.7c-0.3,0.1-0.6,0.1-0.9,0.1c-0.3,0-0.6,0-0.8,0c-1.1,0-2-0.4-2.6-1.1c-0.7-0.7-1-1.6-1.1-2.7v-3.5
				c-2,2.6-4.5,4.5-7.6,5.9C540.8,691.9,537.5,692.6,533.9,692.6z M534.7,689.3c3.2,0,6.1-0.6,8.7-1.8c2.7-1.2,4.7-2.8,6.1-4.8
				c0.9-1.1,1.3-2.2,1.3-3.3v-7.6c-2-0.8-4-1.3-6.2-1.7c-2.1-0.4-4.4-0.6-6.6-0.6c-2.1,0-4.1,0.2-5.8,0.7c-1.8,0.5-3.3,1.1-4.5,1.9
				c-1.3,0.8-2.2,1.8-2.9,3c-0.7,1.2-1,2.5-1,3.9c0,1.4,0.3,2.8,0.8,4c0.5,1.3,1.3,2.3,2.3,3.2c1,0.9,2.1,1.6,3.5,2.1
				C531.8,689,533.2,689.3,534.7,689.3z"/>
		</g>
		<circle className="st14" cx="399" cy="400" r="396"/>
	</g>
</g>
</svg>
