<?xml version="1.0" encoding="utf-8"?>
<!-- Generator: Adobe Illustrator 25.1.0, SVG Export Plug-In . SVG Version: 6.00 Build 0)  -->
<svg version="1.1" id="Layer_1" xmlns="http://www.w3.org/2000/svg" xmlns:xlink="http://www.w3.org/1999/xlink" x="0px" y="0px"
	 viewBox="0 0 650 450" style="enable-background:new 0 0 650 450;" xml:space="preserve">
<style type="text/css">
	.st0{fill:#120136;}
	.st1{clip-path:url(#SVGID_2_);}
	.st2{fill:#120136;stroke:#FFFFFF;stroke-width:11;stroke-miterlimit:10;}
	.st3{fill:none;}
	.st4{fill:url(#SVGID_3_);}
	.st5{fill:url(#SVGID_4_);}
	.st6{fill:url(#SVGID_5_);}
	.st7{fill:url(#SVGID_6_);}
	.st8{fill:url(#SVGID_7_);}
	.st9{fill:#9D0191;}
	.st10{fill:url(#SVGID_8_);}
	.st11{fill:#FF675C;}
	.st12{fill:url(#SVGID_9_);}
	.st13{fill:#FFFFFF;}
	.st14{fill:none;stroke:#FFFFFF;stroke-width:11;stroke-miterlimit:10;}
</style>
<rect class="st0" width="650" height="450"/>
<g>
	<defs>
		<circle id="SVGID_1_" cx="325" cy="225" r="200.7"/>
	</defs>
	<clipPath id="SVGID_2_">
		<use xlink:href="#SVGID_1_"  style="overflow:visible;"/>
	</clipPath>
	<g class="st1">
		<circle class="st2" cx="325" cy="225" r="200.7"/>
		<circle class="st3" cx="325" cy="224.5" r="210.5"/>
		<linearGradient id="SVGID_3_" gradientUnits="userSpaceOnUse" x1="218.9438" y1="315.8397" x2="431.0562" y2="315.8397">
			<stop  offset="0" style="stop-color:#FF4033"/>
			<stop  offset="0.1236" style="stop-color:#F73E37"/>
			<stop  offset="0.3164" style="stop-color:#E13840"/>
			<stop  offset="0.5544" style="stop-color:#BD2F50"/>
			<stop  offset="0.8257" style="stop-color:#8B2165"/>
			<stop  offset="1" style="stop-color:#671875"/>
		</linearGradient>
		<path class="st4" d="M218.9,331.8v-32h12.3c2.6,0,5,0.4,7,1.3c2,0.8,3.7,2,5.1,3.4c1.4,1.4,2.4,3.1,3.1,5.1c0.7,1.9,1,4,1,6.2
			c0,2.4-0.4,4.6-1.2,6.6c-0.8,2-1.9,3.7-3.3,5.1c-1.4,1.4-3.1,2.5-5.1,3.2s-4.2,1.1-6.6,1.1H218.9z M238.5,315.8
			c0-1.2-0.2-2.4-0.5-3.4c-0.3-1-0.8-1.9-1.4-2.6c-0.6-0.7-1.4-1.3-2.3-1.7c-0.9-0.4-1.9-0.6-3-0.6h-3.5v16.7h3.5
			c1.1,0,2.2-0.2,3.1-0.6c0.9-0.4,1.7-1,2.3-1.8c0.6-0.8,1.1-1.6,1.4-2.7C238.3,318.1,238.5,317,238.5,315.8z M258.2,299.8h8
			l11.1,32h-8.9l-1.9-6.3h-8.5l-1.9,6.3h-9L258.2,299.8z M265.1,319.7l-2.8-9.9l-3,9.9H265.1z M302,307.5h-9.2v24.3H284v-24.3h-9.2
			v-7.7H302V307.5z M310.6,299.8h8l11.1,32h-8.9l-1.9-6.3h-8.5l-1.9,6.3h-9L310.6,299.8z M317.4,319.7l-2.8-9.9l-3,9.9H317.4z
			 M364,324.2v7.7h-22.8v-32h22.4v7.7h-13.6v4.5h11.6v7.1h-11.6v5H364z M376.9,316.1v15.7h-8.8v-32h6.9l12.9,16.3v-16.3h8.8v32h-7
			L376.9,316.1z M423.8,329.2c-2.3,1.9-4.9,2.9-7.9,2.9c-2.1,0-4.1-0.4-6-1.1s-3.5-1.8-5-3.2c-1.4-1.4-2.5-3.1-3.4-5.2
			c-0.8-2-1.3-4.4-1.3-7c0-2.3,0.4-4.4,1.3-6.3c0.8-1.9,2-3.6,3.5-5.1c1.5-1.4,3.2-2.6,5.2-3.4c2-0.8,4.2-1.2,6.5-1.2
			c1.4,0,2.8,0.2,4.1,0.5c1.3,0.3,2.5,0.8,3.7,1.4c1.1,0.6,2.1,1.4,3,2.2c0.9,0.9,1.6,1.8,2.2,2.9l-6.5,5c-0.6-1.3-1.6-2.3-2.8-3
			s-2.6-1.1-4-1.1c-1.1,0-2,0.2-2.9,0.6s-1.6,1-2.3,1.8c-0.6,0.8-1.1,1.6-1.5,2.7c-0.4,1-0.5,2.2-0.5,3.4c0,1.3,0.2,2.4,0.5,3.4
			c0.4,1,0.9,1.9,1.5,2.6s1.4,1.3,2.3,1.7c0.9,0.4,1.9,0.6,3,0.6c2.6,0,4.8-1.1,6.8-3.2h-5.5v-6.3h13.2v17h-7.3V329.2z"/>
		<g>
			<g>
				<linearGradient id="SVGID_4_" gradientUnits="userSpaceOnUse" x1="204.1721" y1="220.6136" x2="270.5589" y2="220.6136">
					<stop  offset="0" style="stop-color:#FF4033"/>
					<stop  offset="0.6112" style="stop-color:#862067"/>
					<stop  offset="1" style="stop-color:#3E0D86"/>
				</linearGradient>
				<path class="st5" d="M259.5,276c-30.5,0-55.4-24.8-55.4-55.4s24.8-55.4,55.4-55.4c6.1,0,11,4.9,11,11c0,6.1-4.9,11-11,11
					c-18.4,0-33.3,15-33.3,33.3s15,33.3,33.3,33.3c6.1,0,11,4.9,11,11C270.6,271,265.6,276,259.5,276z"/>
			</g>
			<g>
				<linearGradient id="SVGID_5_" gradientUnits="userSpaceOnUse" x1="334.2405" y1="245.371" x2="444.9778" y2="245.371">
					<stop  offset="7.973710e-02" style="stop-color:#FF4033"/>
					<stop  offset="0.1762" style="stop-color:#F53D37"/>
					<stop  offset="0.3383" style="stop-color:#DB3742"/>
					<stop  offset="0.5461" style="stop-color:#B12B55"/>
					<stop  offset="0.7888" style="stop-color:#761C6E"/>
					<stop  offset="1" style="stop-color:#3E0D86"/>
				</linearGradient>
				<path class="st6" d="M389.6,278.6c-30.5,0-55.4-24.8-55.4-55.4c0-6.1,4.9-11,11-11c6.1,0,11,4.9,11,11c0,18.4,15,33.3,33.3,33.3
					s33.3-15,33.3-33.3c0-6.1,4.9-11,11-11c6.1,0,11,4.9,11,11C445,253.7,420.1,278.6,389.6,278.6z"/>
			</g>
			<linearGradient id="SVGID_6_" gradientUnits="userSpaceOnUse" x1="337.5871" y1="145.6849" x2="443.1839" y2="117.3904">
				<stop  offset="0" style="stop-color:#FF4033"/>
				<stop  offset="0.1048" style="stop-color:#F53D37"/>
				<stop  offset="0.281" style="stop-color:#DB3742"/>
				<stop  offset="0.5068" style="stop-color:#B12B55"/>
				<stop  offset="0.7705" style="stop-color:#761C6E"/>
				<stop  offset="1" style="stop-color:#3E0D86"/>
			</linearGradient>
			<path class="st7" d="M389.7,76.4C389.7,76.4,389.7,76.4,389.7,76.4C389.6,76.4,389.6,76.4,389.7,76.4
				c-30.6,0-55.5,24.8-55.5,55.4c0,6.1,4.9,11,11,11s11-4.9,11-11c0-18.4,15-33.3,33.3-33.3c0,0,0,0,0,0c0,0,0,0,0,0
				c18.4,0,33.3,15,33.3,33.3s-15,33.3-33.3,33.3c-6.1,0-11,4.9-11,11c0,6.1,4.9,11,11,11c30.5,0,55.4-24.8,55.4-55.4
				S420.2,76.4,389.7,76.4z"/>
			<g>
				<linearGradient id="SVGID_7_" gradientUnits="userSpaceOnUse" x1="279.638" y1="275.9822" x2="279.638" y2="6.3407">
					<stop  offset="0" style="stop-color:#FF4033"/>
					<stop  offset="0.1962" style="stop-color:#BB2E50"/>
					<stop  offset="0.4094" style="stop-color:#781C6D"/>
					<stop  offset="0.5644" style="stop-color:#4E117F"/>
					<stop  offset="0.6435" style="stop-color:#3E0D86"/>
				</linearGradient>
				<path class="st8" d="M257.5,276C257.5,276,257.5,276,257.5,276c-6.1,0-11-4.9-11-11c0-6.1,4.9-11,11-11l0,0
					c8.9,0,17.3-3.5,23.6-9.8c6.3-6.3,9.8-14.7,9.8-23.6V17.4c0-6.1,4.9-11,11-11c6.1,0,11,4.9,11,11v203.3
					c0,14.8-5.8,28.7-16.2,39.2C286.2,270.2,272.3,276,257.5,276z"/>
			</g>
			<circle class="st9" cx="434.8" cy="221.8" r="11"/>
			<g>
				<linearGradient id="SVGID_8_" gradientUnits="userSpaceOnUse" x1="248.6624" y1="176.2635" x2="400.304" y2="176.2635">
					<stop  offset="0" style="stop-color:#FF4033"/>
					<stop  offset="0.6112" style="stop-color:#862067"/>
					<stop  offset="1" style="stop-color:#3E0D86"/>
				</linearGradient>
				<path class="st10" d="M389.3,187.3H259.7c-6.1,0-11-4.9-11-11s4.9-11,11-11h129.6c6.1,0,11,4.9,11,11S395.4,187.3,389.3,187.3z"
					/>
			</g>
			<circle class="st9" cx="257.5" cy="176.3" r="11"/>
			<circle class="st9" cx="389.8" cy="176.3" r="11"/>
			<circle class="st11" cx="257.5" cy="265" r="11"/>
			<g>
				<linearGradient id="SVGID_9_" gradientUnits="userSpaceOnUse" x1="345.2591" y1="232.6268" x2="345.2591" y2="120.6258">
					<stop  offset="0" style="stop-color:#FF4033"/>
					<stop  offset="0.1048" style="stop-color:#F53D37"/>
					<stop  offset="0.281" style="stop-color:#DB3742"/>
					<stop  offset="0.5068" style="stop-color:#B12B55"/>
					<stop  offset="0.7705" style="stop-color:#761C6E"/>
					<stop  offset="1" style="stop-color:#3E0D86"/>
				</linearGradient>
				<path class="st12" d="M345.3,232.6c-6.1,0-11-4.9-11-11v-90c0-6.1,4.9-11,11-11s11,4.9,11,11v90
					C356.3,227.7,351.3,232.6,345.3,232.6z"/>
			</g>
			<circle class="st11" cx="345.3" cy="130.7" r="11"/>
		</g>
		<g>
			<path class="st13" d="M278.4,372.9v-25.5l-11.6,19.9h-1.3l-11.6-19.9v25.5h-2.1v-29.5h2.1l12.3,21.1l12.3-21.1h2.1v29.5H278.4z"
				/>
			<path class="st13" d="M296.5,373.3c-1.5,0-2.9-0.3-4.2-0.9s-2.4-1.4-3.4-2.5c-1-1-1.7-2.2-2.2-3.6c-0.5-1.4-0.8-2.8-0.8-4.4
				c0-1.5,0.3-3,0.8-4.3c0.5-1.3,1.3-2.5,2.2-3.5c0.9-1,2.1-1.8,3.3-2.4c1.3-0.6,2.7-0.9,4.2-0.9c1.5,0,2.9,0.3,4.2,0.9
				c1.3,0.6,2.4,1.4,3.4,2.4c0.9,1,1.7,2.2,2.2,3.5c0.5,1.3,0.8,2.8,0.8,4.3c0,0.1,0,0.3,0,0.5s0,0.3,0,0.4h-19
				c0.1,1.2,0.4,2.4,0.9,3.5c0.5,1.1,1.1,2,1.9,2.8s1.6,1.4,2.6,1.8c1,0.4,2.1,0.7,3.2,0.7c0.7,0,1.5-0.1,2.2-0.3
				c0.7-0.2,1.4-0.5,2-0.9c0.6-0.4,1.2-0.8,1.7-1.3c0.5-0.5,0.9-1.1,1.1-1.7l1.8,0.5c-0.3,0.8-0.8,1.5-1.4,2.1
				c-0.6,0.7-1.3,1.2-2.1,1.7c-0.8,0.5-1.7,0.8-2.6,1.1C298.5,373.2,297.5,373.3,296.5,373.3z M305,361.2c-0.1-1.3-0.4-2.4-0.9-3.5
				c-0.5-1.1-1.1-2-1.9-2.7c-0.8-0.8-1.6-1.4-2.6-1.8c-1-0.4-2.1-0.6-3.2-0.6c-1.1,0-2.2,0.2-3.2,0.6c-1,0.4-1.9,1-2.6,1.8
				c-0.8,0.8-1.4,1.7-1.8,2.7c-0.5,1.1-0.7,2.2-0.8,3.5H305z"/>
			<path class="st13" d="M320.8,373.3c-1.5,0-2.9-0.3-4.2-0.9s-2.4-1.4-3.4-2.5c-1-1-1.7-2.2-2.2-3.6c-0.5-1.4-0.8-2.8-0.8-4.4
				c0-1.5,0.3-3,0.8-4.3c0.5-1.3,1.3-2.5,2.2-3.5c0.9-1,2.1-1.8,3.3-2.4c1.3-0.6,2.7-0.9,4.2-0.9c1.5,0,2.9,0.3,4.2,0.9
				c1.3,0.6,2.4,1.4,3.4,2.4c0.9,1,1.7,2.2,2.2,3.5c0.5,1.3,0.8,2.8,0.8,4.3c0,0.1,0,0.3,0,0.5s0,0.3,0,0.4h-19
				c0.1,1.2,0.4,2.4,0.9,3.5c0.5,1.1,1.1,2,1.9,2.8s1.6,1.4,2.6,1.8c1,0.4,2.1,0.7,3.2,0.7c0.7,0,1.5-0.1,2.2-0.3
				c0.7-0.2,1.4-0.5,2-0.9c0.6-0.4,1.2-0.8,1.7-1.3c0.5-0.5,0.9-1.1,1.1-1.7l1.8,0.5c-0.3,0.8-0.8,1.5-1.4,2.1
				c-0.6,0.7-1.3,1.2-2.1,1.7c-0.8,0.5-1.7,0.8-2.6,1.1C322.7,373.2,321.8,373.3,320.8,373.3z M329.2,361.2
				c-0.1-1.3-0.4-2.4-0.9-3.5c-0.5-1.1-1.1-2-1.9-2.7c-0.8-0.8-1.6-1.4-2.6-1.8c-1-0.4-2.1-0.6-3.2-0.6c-1.1,0-2.2,0.2-3.2,0.6
				c-1,0.4-1.9,1-2.6,1.8c-0.8,0.8-1.4,1.7-1.8,2.7c-0.5,1.1-0.7,2.2-0.8,3.5H329.2z"/>
			<path class="st13" d="M345.3,371.8c-0.1,0.1-0.3,0.2-0.6,0.3c-0.3,0.2-0.6,0.3-1,0.4c-0.4,0.1-0.9,0.3-1.4,0.4s-1,0.2-1.6,0.2
				c-0.6,0-1.1-0.1-1.6-0.3c-0.5-0.2-1-0.4-1.4-0.7s-0.7-0.7-0.9-1.2s-0.3-1-0.3-1.7v-16.3h-3v-1.7h3v-7.4h2.1v7.4h5v1.7h-5v15.8
				c0,0.8,0.3,1.4,0.8,1.8s1.2,0.6,1.9,0.6c0.9,0,1.6-0.1,2.2-0.4s1-0.5,1.1-0.6L345.3,371.8z"/>
			<path class="st13" d="M361.1,371.1c2,0,3.7-0.4,5-1.1c1.3-0.7,2.4-1.7,3.1-3c0.8-1.2,1.3-2.6,1.6-4.2c0.3-1.6,0.5-3.1,0.5-4.7
				v-14.9h2.1v14.9c0,2-0.2,3.9-0.6,5.7s-1.1,3.4-2.1,4.8c-1,1.4-2.2,2.5-3.8,3.3c-1.6,0.8-3.5,1.2-5.7,1.2c-2.4,0-4.3-0.4-5.9-1.3
				s-2.8-2-3.8-3.4c-1-1.4-1.6-3-2-4.8c-0.4-1.8-0.6-3.6-0.6-5.5v-14.9h2.1v14.9c0,1.6,0.2,3.2,0.5,4.8c0.3,1.6,0.9,2.9,1.7,4.1
				c0.8,1.2,1.8,2.2,3.1,2.9C357.5,370.8,359.1,371.1,361.1,371.1z"/>
			<path class="st13" d="M390.6,373.3c-1.9,0-3.5-0.5-5-1.5s-2.6-2.2-3.5-3.6v13.5H380v-30.5h1.9v4.3c0.9-1.4,2.1-2.5,3.5-3.4
				c1.5-0.9,3-1.3,4.7-1.3c1.5,0,2.9,0.3,4.2,1c1.3,0.6,2.4,1.5,3.3,2.5s1.6,2.2,2.1,3.6c0.5,1.4,0.8,2.7,0.8,4.2
				c0,1.5-0.2,2.9-0.7,4.3c-0.5,1.4-1.1,2.6-2,3.6c-0.9,1-1.9,1.8-3.1,2.4S392.1,373.3,390.6,373.3z M390.1,371.4
				c1.2,0,2.4-0.3,3.4-0.8c1-0.5,1.9-1.2,2.6-2.1c0.7-0.9,1.3-1.9,1.7-3c0.4-1.1,0.6-2.3,0.6-3.4c0-1.2-0.2-2.4-0.7-3.6
				c-0.4-1.1-1.1-2.1-1.9-3c-0.8-0.9-1.7-1.5-2.8-2.1c-1.1-0.5-2.2-0.8-3.4-0.8c-0.7,0-1.5,0.2-2.4,0.5c-0.8,0.3-1.6,0.7-2.4,1.3
				c-0.7,0.5-1.4,1.2-1.9,1.9c-0.5,0.7-0.8,1.4-0.9,2.2v7.1c0.4,0.8,0.8,1.6,1.4,2.2c0.6,0.7,1.2,1.3,1.9,1.8
				c0.7,0.5,1.4,0.9,2.2,1.2C388.4,371.3,389.2,371.4,390.1,371.4z"/>
		</g>
		<circle class="st14" cx="324.5" cy="225" r="200.7"/>
	</g>
</g>
</svg>
