<?xml version="1.0" encoding="utf-8"?>
<!-- Generator: Adobe Illustrator 25.1.0, SVG Export Plug-In . SVG Version: 6.00 Build 0)  -->
<svg version="1.1" id="Layer_1" xmlns="http://www.w3.org/2000/svg" xmlns:xlink="http://www.w3.org/1999/xlink" x="0px" y="0px"
	 viewBox="0 0 512 512" style="enable-background:new 0 0 512 512;" xml:space="preserve">
<style type="text/css">
	.st0{fill:#120136;}
	.st1{clip-path:url(#SVGID_2_);}
	.st2{fill:#120136;stroke:#FFFFFF;stroke-width:11;stroke-miterlimit:10;}
	.st3{fill:none;}
	.st4{fill:url(#SVGID_3_);}
	.st5{fill:url(#SVGID_4_);}
	.st6{fill:url(#SVGID_5_);}
	.st7{fill:url(#SVGID_6_);}
	.st8{fill:url(#SVGID_7_);}
	.st9{fill:#9D0191;}
	.st10{fill:url(#SVGID_8_);}
	.st11{fill:#FF675C;}
	.st12{fill:url(#SVGID_9_);}
	.st13{fill:#FFFFFF;}
	.st14{fill:none;stroke:#FFFFFF;stroke-width:11;stroke-miterlimit:10;}
</style>
<rect x="-117.5" y="-2.5" className="st0" width="746.9" height="517.1"/>
<g>
	<defs>
		<circle id="SVGID_1_" cx="256" cy="256" r="230.6"/>
	</defs>
	<clipPath id="SVGID_2_">
		<use xlink:href="#SVGID_1_"  style="overflow:visible;"/>
	</clipPath>
	<g className="st1">
		<circle className="st2" cx="256" cy="256" r="230.6"/>
		<circle className="st3" cx="256" cy="255.5" r="241.9"/>
		<linearGradient id="SVGID_3_" gradientUnits="userSpaceOnUse" x1="134.1325" y1="360.3825" x2="377.8675" y2="360.3825">
			<stop  offset="0" style="stop-color:#FF4033"/>
			<stop  offset="0.1236" style="stop-color:#F73E37"/>
			<stop  offset="0.3164" style="stop-color:#E13840"/>
			<stop  offset="0.5544" style="stop-color:#BD2F50"/>
			<stop  offset="0.8257" style="stop-color:#8B2165"/>
			<stop  offset="1" style="stop-color:#671875"/>
		</linearGradient>
		<path className="st4" d="M134.1,378.8V342h14.1c3,0,5.7,0.5,8,1.5c2.3,1,4.2,2.3,5.8,3.9c1.6,1.7,2.7,3.6,3.5,5.8
			c0.8,2.2,1.2,4.6,1.2,7.1c0,2.8-0.4,5.3-1.3,7.6c-0.9,2.3-2.1,4.2-3.8,5.8c-1.6,1.6-3.6,2.9-5.9,3.7s-4.8,1.3-7.6,1.3H134.1z
			 M156.6,360.3c0-1.4-0.2-2.7-0.6-3.9c-0.4-1.2-0.9-2.2-1.6-3c-0.7-0.8-1.6-1.5-2.6-1.9c-1-0.5-2.2-0.7-3.5-0.7h-4V370h4
			c1.3,0,2.5-0.2,3.5-0.7c1-0.5,1.9-1.2,2.6-2c0.7-0.9,1.2-1.9,1.6-3.1C156.4,363,156.6,361.7,156.6,360.3z M179.3,342h9.2
			l12.7,36.8H191l-2.2-7.2H179l-2.2,7.2h-10.3L179.3,342z M187.1,364.8l-3.3-11.4l-3.4,11.4H187.1z M229.6,350.8H219v28h-10.1v-28
			h-10.6V342h31.3V350.8z M239.4,342h9.2l12.7,36.8h-10.3l-2.2-7.2h-9.8l-2.2,7.2h-10.3L239.4,342z M247.3,364.8l-3.3-11.4
			l-3.4,11.4H247.3z M300.8,370v8.8h-26.2V342h25.8v8.8h-15.6v5.2H298v8.2h-13.4v5.8H300.8z M315.6,360.7v18.1h-10.1V342h7.9
			l14.8,18.7V342h10.1v36.8h-8L315.6,360.7z M369.5,375.7c-2.6,2.2-5.6,3.3-9.1,3.3c-2.4,0-4.7-0.4-6.8-1.3
			c-2.2-0.8-4.1-2.1-5.7-3.7c-1.6-1.6-2.9-3.6-3.9-6c-1-2.3-1.5-5-1.5-8c0-2.6,0.5-5,1.5-7.2c1-2.2,2.3-4.2,4-5.8
			c1.7-1.6,3.7-2.9,6-3.9c2.3-0.9,4.8-1.4,7.4-1.4c1.7,0,3.2,0.2,4.8,0.5c1.5,0.4,2.9,0.9,4.2,1.6c1.3,0.7,2.5,1.6,3.5,2.5
			c1,1,1.9,2.1,2.5,3.3l-7.5,5.8c-0.7-1.5-1.8-2.6-3.3-3.5c-1.5-0.9-3-1.3-4.6-1.3c-1.2,0-2.3,0.2-3.3,0.7s-1.9,1.2-2.6,2
			c-0.7,0.9-1.3,1.9-1.7,3.1c-0.4,1.2-0.6,2.5-0.6,3.9c0,1.5,0.2,2.8,0.6,3.9c0.4,1.2,1,2.2,1.7,3c0.7,0.8,1.6,1.5,2.7,2
			c1,0.5,2.2,0.7,3.5,0.7c2.9,0,5.5-1.2,7.8-3.6h-6.4v-7.3h15.1v19.6h-8.3V375.7z"/>
		<g>
			<g>
				<linearGradient id="SVGID_4_" gradientUnits="userSpaceOnUse" x1="117.1586" y1="250.9597" x2="193.4425" y2="250.9597">
					<stop  offset="0" style="stop-color:#FF4033"/>
					<stop  offset="0.6112" style="stop-color:#862067"/>
					<stop  offset="1" style="stop-color:#3E0D86"/>
				</linearGradient>
				<path className="st5" d="M180.8,314.6c-35.1,0-63.6-28.5-63.6-63.6s28.5-63.6,63.6-63.6c7,0,12.7,5.7,12.7,12.7
					c0,7-5.7,12.7-12.7,12.7c-21.1,0-38.3,17.2-38.3,38.3s17.2,38.3,38.3,38.3c7,0,12.7,5.7,12.7,12.7
					C193.4,308.9,187.8,314.6,180.8,314.6z"/>
			</g>
			<g>
				<linearGradient id="SVGID_5_" gradientUnits="userSpaceOnUse" x1="266.6181" y1="279.4081" x2="393.8647" y2="279.4081">
					<stop  offset="7.973710e-02" style="stop-color:#FF4033"/>
					<stop  offset="0.1762" style="stop-color:#F53D37"/>
					<stop  offset="0.3383" style="stop-color:#DB3742"/>
					<stop  offset="0.5461" style="stop-color:#B12B55"/>
					<stop  offset="0.7888" style="stop-color:#761C6E"/>
					<stop  offset="1" style="stop-color:#3E0D86"/>
				</linearGradient>
				<path className="st6" d="M330.2,317.6c-35.1,0-63.6-28.5-63.6-63.6c0-7,5.7-12.7,12.7-12.7c7,0,12.7,5.7,12.7,12.7
					c0,21.1,17.2,38.3,38.3,38.3s38.3-17.2,38.3-38.3c0-7,5.7-12.7,12.7-12.7c7,0,12.7,5.7,12.7,12.7
					C393.9,289,365.3,317.6,330.2,317.6z"/>
			</g>
			<linearGradient id="SVGID_6_" gradientUnits="userSpaceOnUse" x1="270.4637" y1="164.8603" x2="391.8033" y2="132.3474">
				<stop  offset="0" style="stop-color:#FF4033"/>
				<stop  offset="0.1048" style="stop-color:#F53D37"/>
				<stop  offset="0.281" style="stop-color:#DB3742"/>
				<stop  offset="0.5068" style="stop-color:#B12B55"/>
				<stop  offset="0.7705" style="stop-color:#761C6E"/>
				<stop  offset="1" style="stop-color:#3E0D86"/>
			</linearGradient>
			<path className="st7" d="M330.3,85.2C330.3,85.2,330.3,85.2,330.3,85.2c-0.1,0-0.1,0-0.1,0c-35.1,0-63.6,28.5-63.6,63.6
				c0,7,5.7,12.7,12.7,12.7c7,0,12.7-5.7,12.7-12.7c0-21.1,17.2-38.3,38.3-38.3c0,0,0,0,0.1,0c0,0,0,0,0.1,0
				c21.1,0,38.3,17.2,38.3,38.3s-17.2,38.3-38.3,38.3c-7,0-12.7,5.7-12.7,12.7c0,7,5.7,12.7,12.7,12.7c35.1,0,63.6-28.5,63.6-63.6
				S365.4,85.2,330.3,85.2z"/>
			<g>
				<linearGradient id="SVGID_7_" gradientUnits="userSpaceOnUse" x1="203.8752" y1="314.5829" x2="203.8752" y2="4.7419">
					<stop  offset="0" style="stop-color:#FF4033"/>
					<stop  offset="0.1962" style="stop-color:#BB2E50"/>
					<stop  offset="0.4094" style="stop-color:#781C6D"/>
					<stop  offset="0.5644" style="stop-color:#4E117F"/>
					<stop  offset="0.6435" style="stop-color:#3E0D86"/>
				</linearGradient>
				<path className="st8" d="M178.4,314.6C178.4,314.6,178.4,314.6,178.4,314.6c-7,0-12.7-5.7-12.7-12.7c0-7,5.7-12.7,12.7-12.7l0,0
					c10.2,0,19.8-4,27.1-11.2c7.2-7.2,11.2-16.9,11.2-27.1V17.4c0-7,5.7-12.7,12.7-12.7c7,0,12.7,5.7,12.7,12.7V251
					c0,17-6.6,33-18.6,45C211.4,308,195.4,314.6,178.4,314.6z"/>
			</g>
			<circle className="st9" cx="382.2" cy="252.3" r="12.7"/>
			<g>
				<linearGradient id="SVGID_8_" gradientUnits="userSpaceOnUse" x1="168.2816" y1="199.9977" x2="342.5306" y2="199.9977">
					<stop  offset="0" style="stop-color:#FF4033"/>
					<stop  offset="0.6112" style="stop-color:#862067"/>
					<stop  offset="1" style="stop-color:#3E0D86"/>
				</linearGradient>
				<path className="st10" d="M329.9,212.7H180.9c-7,0-12.7-5.7-12.7-12.7s5.7-12.7,12.7-12.7h148.9c7,0,12.7,5.7,12.7,12.7
					S336.9,212.7,329.9,212.7z"/>
			</g>
			<circle className="st9" cx="178.4" cy="200" r="12.7"/>
			<circle className="st9" cx="330.4" cy="200" r="12.7"/>
			<circle className="st11" cx="178.4" cy="301.9" r="12.7"/>
			<g>
				<linearGradient id="SVGID_9_" gradientUnits="userSpaceOnUse" x1="279.2794" y1="264.7638" x2="279.2794" y2="136.0652">
					<stop  offset="0" style="stop-color:#FF4033"/>
					<stop  offset="0.1048" style="stop-color:#F53D37"/>
					<stop  offset="0.281" style="stop-color:#DB3742"/>
					<stop  offset="0.5068" style="stop-color:#B12B55"/>
					<stop  offset="0.7705" style="stop-color:#761C6E"/>
					<stop  offset="1" style="stop-color:#3E0D86"/>
				</linearGradient>
				<path className="st12" d="M279.3,264.8c-7,0-12.7-5.7-12.7-12.7V148.7c0-7,5.7-12.7,12.7-12.7c7,0,12.7,5.7,12.7,12.7v103.4
					C291.9,259.1,286.3,264.8,279.3,264.8z"/>
			</g>
			<circle className="st11" cx="279.3" cy="147.7" r="12.7"/>
		</g>
		<g>
			<path className="st13" d="M202.4,425.9v-29.4L189,419.5h-1.5l-13.4-22.9v29.4h-2.4V392h2.4l14.1,24.3l14.1-24.3h2.4v33.9H202.4z"/>
			<path className="st13" d="M223.3,426.4c-1.8,0-3.4-0.3-4.9-1c-1.5-0.7-2.8-1.6-3.9-2.8c-1.1-1.2-2-2.6-2.6-4.1s-0.9-3.2-0.9-5
				c0-1.8,0.3-3.4,0.9-4.9c0.6-1.5,1.5-2.9,2.6-4.1c1.1-1.2,2.4-2.1,3.8-2.7c1.5-0.7,3.1-1,4.8-1c1.8,0,3.4,0.3,4.9,1
				c1.5,0.7,2.8,1.6,3.9,2.8c1.1,1.2,1.9,2.5,2.5,4.1c0.6,1.5,0.9,3.2,0.9,4.9c0,0.2,0,0.4,0,0.6c0,0.2,0,0.4,0,0.5h-21.8
				c0.1,1.4,0.4,2.8,1,4c0.6,1.2,1.3,2.3,2.2,3.2c0.9,0.9,1.9,1.6,3,2.1c1.1,0.5,2.4,0.8,3.7,0.8c0.9,0,1.7-0.1,2.5-0.4
				c0.8-0.2,1.6-0.6,2.3-1c0.7-0.4,1.4-0.9,1.9-1.5c0.6-0.6,1-1.2,1.3-1.9l2.1,0.6c-0.4,0.9-0.9,1.7-1.6,2.5
				c-0.7,0.7-1.5,1.4-2.4,1.9c-0.9,0.5-1.9,1-3,1.3C225.5,426.2,224.4,426.4,223.3,426.4z M233,412.5c-0.1-1.5-0.4-2.8-1-4
				c-0.6-1.2-1.3-2.3-2.2-3.1c-0.9-0.9-1.9-1.6-3-2.1c-1.1-0.5-2.4-0.7-3.7-0.7c-1.3,0-2.5,0.2-3.7,0.7c-1.1,0.5-2.2,1.2-3,2.1
				c-0.9,0.9-1.6,1.9-2.1,3.2c-0.5,1.2-0.8,2.6-0.9,4H233z"/>
			<path className="st13" d="M251.1,426.4c-1.8,0-3.4-0.3-4.9-1c-1.5-0.7-2.8-1.6-3.9-2.8c-1.1-1.2-2-2.6-2.6-4.1s-0.9-3.2-0.9-5
				c0-1.8,0.3-3.4,0.9-4.9c0.6-1.5,1.5-2.9,2.6-4.1c1.1-1.2,2.4-2.1,3.8-2.7c1.5-0.7,3.1-1,4.8-1c1.8,0,3.4,0.3,4.9,1
				c1.5,0.7,2.8,1.6,3.9,2.8c1.1,1.2,1.9,2.5,2.5,4.1c0.6,1.5,0.9,3.2,0.9,4.9c0,0.2,0,0.4,0,0.6c0,0.2,0,0.4,0,0.5h-21.8
				c0.1,1.4,0.4,2.8,1,4c0.6,1.2,1.3,2.3,2.2,3.2c0.9,0.9,1.9,1.6,3,2.1c1.1,0.5,2.4,0.8,3.7,0.8c0.9,0,1.7-0.1,2.5-0.4
				c0.8-0.2,1.6-0.6,2.3-1c0.7-0.4,1.4-0.9,1.9-1.5c0.6-0.6,1-1.2,1.3-1.9l2.1,0.6c-0.4,0.9-0.9,1.7-1.6,2.5
				c-0.7,0.7-1.5,1.4-2.4,1.9c-0.9,0.5-1.9,1-3,1.3C253.4,426.2,252.3,426.4,251.1,426.4z M260.9,412.5c-0.1-1.5-0.4-2.8-1-4
				c-0.6-1.2-1.3-2.3-2.2-3.1c-0.9-0.9-1.9-1.6-3-2.1c-1.1-0.5-2.4-0.7-3.7-0.7c-1.3,0-2.5,0.2-3.7,0.7c-1.1,0.5-2.2,1.2-3,2.1
				c-0.9,0.9-1.6,1.9-2.1,3.2c-0.5,1.2-0.8,2.6-0.9,4H260.9z"/>
			<path className="st13" d="M279.3,424.7c-0.1,0.1-0.3,0.2-0.6,0.4c-0.3,0.2-0.7,0.3-1.1,0.5c-0.5,0.2-1,0.3-1.6,0.4
				c-0.6,0.1-1.2,0.2-1.9,0.2s-1.3-0.1-1.9-0.3c-0.6-0.2-1.1-0.5-1.6-0.9c-0.4-0.4-0.8-0.8-1.1-1.4c-0.3-0.5-0.4-1.2-0.4-1.9V403
				h-3.5v-2h3.5v-8.5h2.4v8.5h5.8v2h-5.8v18.2c0,0.9,0.3,1.6,1,2.1c0.6,0.5,1.4,0.7,2.2,0.7c1,0,1.8-0.2,2.6-0.5
				c0.7-0.3,1.2-0.5,1.3-0.6L279.3,424.7z"/>
			<path className="st13" d="M297.4,423.9c2.3,0,4.2-0.4,5.7-1.3s2.7-2,3.6-3.4c0.9-1.4,1.5-3,1.9-4.8c0.4-1.8,0.5-3.6,0.5-5.4V392h2.4
				V409c0,2.3-0.2,4.4-0.7,6.5s-1.3,3.9-2.4,5.5c-1.1,1.6-2.6,2.8-4.3,3.8c-1.8,0.9-4,1.4-6.6,1.4c-2.7,0-5-0.5-6.8-1.5
				c-1.8-1-3.3-2.3-4.4-3.9c-1.1-1.6-1.9-3.4-2.3-5.5c-0.5-2-0.7-4.1-0.7-6.3V392h2.4V409c0,1.9,0.2,3.7,0.5,5.5s1,3.4,1.9,4.8
				c0.9,1.4,2.1,2.5,3.6,3.3C293.3,423.5,295.2,423.9,297.4,423.9z"/>
			<path className="st13" d="M331.4,426.4c-2.1,0-4-0.6-5.7-1.7c-1.7-1.1-3-2.5-4-4.1v15.5h-2.4v-35h2.2v5c1-1.6,2.4-2.9,4-3.9
				c1.7-1,3.5-1.5,5.4-1.5c1.7,0,3.3,0.4,4.8,1.1s2.7,1.7,3.8,2.9s1.9,2.6,2.5,4.1c0.6,1.6,0.9,3.2,0.9,4.8c0,1.7-0.3,3.4-0.8,4.9
				s-1.3,2.9-2.3,4.1c-1,1.2-2.2,2.1-3.6,2.8S333.1,426.4,331.4,426.4z M330.8,424.2c1.4,0,2.7-0.3,3.9-0.9s2.2-1.4,3-2.4
				s1.5-2.2,1.9-3.4s0.7-2.6,0.7-3.9c0-1.4-0.3-2.8-0.8-4.1c-0.5-1.3-1.2-2.4-2.1-3.4c-0.9-1-2-1.8-3.2-2.4
				c-1.2-0.6-2.5-0.9-3.9-0.9c-0.9,0-1.8,0.2-2.7,0.5c-1,0.4-1.9,0.9-2.7,1.5c-0.9,0.6-1.6,1.3-2.2,2.1c-0.6,0.8-1,1.6-1.1,2.5v8.2
				c0.4,0.9,0.9,1.8,1.6,2.6s1.4,1.5,2.2,2.1c0.8,0.6,1.7,1.1,2.6,1.4C328.9,424.1,329.8,424.2,330.8,424.2z"/>
		</g>
		<circle className="st14" cx="255.4" cy="256" r="230.6"/>
	</g>
</g>
</svg>
