<?xml version="1.0" encoding="utf-8"?>
<!-- Generator: Adobe Illustrator 25.1.0, SVG Export Plug-In . SVG Version: 6.00 Build 0)  -->
<svg version="1.1" id="Layer_1" xmlns="http://www.w3.org/2000/svg" xmlns:xlink="http://www.w3.org/1999/xlink" x="0px" y="0px"
	 viewBox="0 0 512 512" style="enable-background:new 0 0 512 512;" xml:space="preserve">
<style type="text/css">
	.st0{fill:#120136;}
	.st1{clip-path:url(#SVGID_2_);}
	.st2{fill:#120136;stroke:#FFFFFF;stroke-width:11;stroke-miterlimit:10;}
	.st3{fill:none;}
	.st4{fill:url(#SVGID_3_);}
	.st5{fill:url(#SVGID_4_);}
	.st6{fill:url(#SVGID_5_);}
	.st7{fill:url(#SVGID_6_);}
	.st8{fill:url(#SVGID_7_);}
	.st9{fill:#9D0191;}
	.st10{fill:url(#SVGID_8_);}
	.st11{fill:#FF675C;}
	.st12{fill:url(#SVGID_9_);}
	.st13{fill:#FFFFFF;}
	.st14{fill:none;stroke:#FFFFFF;stroke-width:11;stroke-miterlimit:10;}
</style>
<rect x="-117.5" y="-2.5" class="st0" width="746.9" height="517.1"/>
<g>
	<defs>
		<circle id="SVGID_1_" cx="256" cy="256" r="230.6"/>
	</defs>
	<clipPath id="SVGID_2_">
		<use xlink:href="#SVGID_1_"  style="overflow:visible;"/>
	</clipPath>
	<g class="st1">
		<circle class="st2" cx="256" cy="256" r="230.6"/>
		<circle class="st3" cx="256" cy="255.5" r="241.9"/>
		<linearGradient id="SVGID_3_" gradientUnits="userSpaceOnUse" x1="134.1325" y1="360.3825" x2="377.8675" y2="360.3825">
			<stop  offset="0" style="stop-color:#FF4033"/>
			<stop  offset="0.1236" style="stop-color:#F73E37"/>
			<stop  offset="0.3164" style="stop-color:#E13840"/>
			<stop  offset="0.5544" style="stop-color:#BD2F50"/>
			<stop  offset="0.8257" style="stop-color:#8B2165"/>
			<stop  offset="1" style="stop-color:#671875"/>
		</linearGradient>
		<path class="st4" d="M134.1,378.8V342h14.1c3,0,5.7,0.5,8,1.5c2.3,1,4.2,2.3,5.8,3.9c1.6,1.7,2.7,3.6,3.5,5.8
			c0.8,2.2,1.2,4.6,1.2,7.1c0,2.8-0.4,5.3-1.3,7.6c-0.9,2.3-2.1,4.2-3.8,5.8c-1.6,1.6-3.6,2.9-5.9,3.7s-4.8,1.3-7.6,1.3H134.1z
			 M156.6,360.3c0-1.4-0.2-2.7-0.6-3.9c-0.4-1.2-0.9-2.2-1.6-3c-0.7-0.8-1.6-1.5-2.6-1.9c-1-0.5-2.2-0.7-3.5-0.7h-4V370h4
			c1.3,0,2.5-0.2,3.5-0.7c1-0.5,1.9-1.2,2.6-2c0.7-0.9,1.2-1.9,1.6-3.1C156.4,363,156.6,361.7,156.6,360.3z M179.3,342h9.2
			l12.7,36.8H191l-2.2-7.2H179l-2.2,7.2h-10.3L179.3,342z M187.1,364.8l-3.3-11.4l-3.4,11.4H187.1z M229.6,350.8H219v28h-10.1v-28
			h-10.6V342h31.3V350.8z M239.4,342h9.2l12.7,36.8h-10.3l-2.2-7.2h-9.8l-2.2,7.2h-10.3L239.4,342z M247.3,364.8l-3.3-11.4
			l-3.4,11.4H247.3z M300.8,370v8.8h-26.2V342h25.8v8.8h-15.6v5.2H298v8.2h-13.4v5.8H300.8z M315.6,360.7v18.1h-10.1V342h7.9
			l14.8,18.7V342h10.1v36.8h-8L315.6,360.7z M369.5,375.7c-2.6,2.2-5.6,3.3-9.1,3.3c-2.4,0-4.7-0.4-6.8-1.3
			c-2.2-0.8-4.1-2.1-5.7-3.7c-1.6-1.6-2.9-3.6-3.9-6c-1-2.3-1.5-5-1.5-8c0-2.6,0.5-5,1.5-7.2c1-2.2,2.3-4.2,4-5.8
			c1.7-1.6,3.7-2.9,6-3.9c2.3-0.9,4.8-1.4,7.4-1.4c1.7,0,3.2,0.2,4.8,0.5c1.5,0.4,2.9,0.9,4.2,1.6c1.3,0.7,2.5,1.6,3.5,2.5
			c1,1,1.9,2.1,2.5,3.3l-7.5,5.8c-0.7-1.5-1.8-2.6-3.3-3.5c-1.5-0.9-3-1.3-4.6-1.3c-1.2,0-2.3,0.2-3.3,0.7s-1.9,1.2-2.6,2
			c-0.7,0.9-1.3,1.9-1.7,3.1c-0.4,1.2-0.6,2.5-0.6,3.9c0,1.5,0.2,2.8,0.6,3.9c0.4,1.2,1,2.2,1.7,3c0.7,0.8,1.6,1.5,2.7,2
			c1,0.5,2.2,0.7,3.5,0.7c2.9,0,5.5-1.2,7.8-3.6h-6.4v-7.3h15.1v19.6h-8.3V375.7z"/>
		<g>
			<g>
				<linearGradient id="SVGID_4_" gradientUnits="userSpaceOnUse" x1="117.1586" y1="250.9597" x2="193.4425" y2="250.9597">
					<stop  offset="0" style="stop-color:#FF4033"/>
					<stop  offset="0.6112" style="stop-color:#862067"/>
					<stop  offset="1" style="stop-color:#3E0D86"/>
				</linearGradient>
				<path class="st5" d="M180.8,314.6c-35.1,0-63.6-28.5-63.6-63.6s28.5-63.6,63.6-63.6c7,0,12.7,5.7,12.7,12.7
					c0,7-5.7,12.7-12.7,12.7c-21.1,0-38.3,17.2-38.3,38.3s17.2,38.3,38.3,38.3c7,0,12.7,5.7,12.7,12.7
					C193.4,308.9,187.8,314.6,180.8,314.6z"/>
			</g>
			<g>
				<linearGradient id="SVGID_5_" gradientUnits="userSpaceOnUse" x1="266.6181" y1="279.4081" x2="393.8647" y2="279.4081">
					<stop  offset="7.973710e-02" style="stop-color:#FF4033"/>
					<stop  offset="0.1762" style="stop-color:#F53D37"/>
					<stop  offset="0.3383" style="stop-color:#DB3742"/>
					<stop  offset="0.5461" style="stop-color:#B12B55"/>
					<stop  offset="0.7888" style="stop-color:#761C6E"/>
					<stop  offset="1" style="stop-color:#3E0D86"/>
				</linearGradient>
				<path class="st6" d="M330.2,317.6c-35.1,0-63.6-28.5-63.6-63.6c0-7,5.7-12.7,12.7-12.7c7,0,12.7,5.7,12.7,12.7
					c0,21.1,17.2,38.3,38.3,38.3s38.3-17.2,38.3-38.3c0-7,5.7-12.7,12.7-12.7c7,0,12.7,5.7,12.7,12.7
					C393.9,289,365.3,317.6,330.2,317.6z"/>
			</g>
			<linearGradient id="SVGID_6_" gradientUnits="userSpaceOnUse" x1="270.4637" y1="164.8603" x2="391.8033" y2="132.3474">
				<stop  offset="0" style="stop-color:#FF4033"/>
				<stop  offset="0.1048" style="stop-color:#F53D37"/>
				<stop  offset="0.281" style="stop-color:#DB3742"/>
				<stop  offset="0.5068" style="stop-color:#B12B55"/>
				<stop  offset="0.7705" style="stop-color:#761C6E"/>
				<stop  offset="1" style="stop-color:#3E0D86"/>
			</linearGradient>
			<path class="st7" d="M330.3,85.2C330.3,85.2,330.3,85.2,330.3,85.2c-0.1,0-0.1,0-0.1,0c-35.1,0-63.6,28.5-63.6,63.6
				c0,7,5.7,12.7,12.7,12.7c7,0,12.7-5.7,12.7-12.7c0-21.1,17.2-38.3,38.3-38.3c0,0,0,0,0.1,0c0,0,0,0,0.1,0
				c21.1,0,38.3,17.2,38.3,38.3s-17.2,38.3-38.3,38.3c-7,0-12.7,5.7-12.7,12.7c0,7,5.7,12.7,12.7,12.7c35.1,0,63.6-28.5,63.6-63.6
				S365.4,85.2,330.3,85.2z"/>
			<g>
				<linearGradient id="SVGID_7_" gradientUnits="userSpaceOnUse" x1="203.8752" y1="314.5829" x2="203.8752" y2="4.7419">
					<stop  offset="0" style="stop-color:#FF4033"/>
					<stop  offset="0.1962" style="stop-color:#BB2E50"/>
					<stop  offset="0.4094" style="stop-color:#781C6D"/>
					<stop  offset="0.5644" style="stop-color:#4E117F"/>
					<stop  offset="0.6435" style="stop-color:#3E0D86"/>
				</linearGradient>
				<path class="st8" d="M178.4,314.6C178.4,314.6,178.4,314.6,178.4,314.6c-7,0-12.7-5.7-12.7-12.7c0-7,5.7-12.7,12.7-12.7l0,0
					c10.2,0,19.8-4,27.1-11.2c7.2-7.2,11.2-16.9,11.2-27.1V17.4c0-7,5.7-12.7,12.7-12.7c7,0,12.7,5.7,12.7,12.7V251
					c0,17-6.6,33-18.6,45C211.4,308,195.4,314.6,178.4,314.6z"/>
			</g>
			<circle class="st9" cx="382.2" cy="252.3" r="12.7"/>
			<g>
				<linearGradient id="SVGID_8_" gradientUnits="userSpaceOnUse" x1="168.2816" y1="199.9977" x2="342.5306" y2="199.9977">
					<stop  offset="0" style="stop-color:#FF4033"/>
					<stop  offset="0.6112" style="stop-color:#862067"/>
					<stop  offset="1" style="stop-color:#3E0D86"/>
				</linearGradient>
				<path class="st10" d="M329.9,212.7H180.9c-7,0-12.7-5.7-12.7-12.7s5.7-12.7,12.7-12.7h148.9c7,0,12.7,5.7,12.7,12.7
					S336.9,212.7,329.9,212.7z"/>
			</g>
			<circle class="st9" cx="178.4" cy="200" r="12.7"/>
			<circle class="st9" cx="330.4" cy="200" r="12.7"/>
			<circle class="st11" cx="178.4" cy="301.9" r="12.7"/>
			<g>
				<linearGradient id="SVGID_9_" gradientUnits="userSpaceOnUse" x1="279.2794" y1="264.7638" x2="279.2794" y2="136.0652">
					<stop  offset="0" style="stop-color:#FF4033"/>
					<stop  offset="0.1048" style="stop-color:#F53D37"/>
					<stop  offset="0.281" style="stop-color:#DB3742"/>
					<stop  offset="0.5068" style="stop-color:#B12B55"/>
					<stop  offset="0.7705" style="stop-color:#761C6E"/>
					<stop  offset="1" style="stop-color:#3E0D86"/>
				</linearGradient>
				<path class="st12" d="M279.3,264.8c-7,0-12.7-5.7-12.7-12.7V148.7c0-7,5.7-12.7,12.7-12.7c7,0,12.7,5.7,12.7,12.7v103.4
					C291.9,259.1,286.3,264.8,279.3,264.8z"/>
			</g>
			<circle class="st11" cx="279.3" cy="147.7" r="12.7"/>
		</g>
		<g>
			<path class="st13" d="M177.3,392h2.1l14.3,33.9h-2.6l-4.7-11.2h-16.2l-4.7,11.2h-2.6L177.3,392z M185.8,412.7l-7.4-17.8
				l-7.6,17.8H185.8z"/>
			<path class="st13" d="M205.3,426.4c-5.3,0-7.9-3.7-7.9-11v-14.3h2.4v14c0,6.1,2.1,9.2,6.3,9.2c1.1,0,2.1-0.2,3.1-0.5
				c1-0.4,1.9-0.9,2.8-1.5c0.9-0.7,1.6-1.4,2.3-2.4c0.7-0.9,1.2-1.9,1.6-3.1v-15.7h2.4v21.5c0,0.8,0.3,1.2,1,1.2v2.2
				c-0.2,0-0.3,0-0.4,0c-0.1,0-0.2,0-0.3,0c-0.6,0-1.2-0.2-1.7-0.6s-0.7-0.9-0.7-1.6V420c-1.1,2-2.6,3.6-4.5,4.7
				C209.6,425.8,207.5,426.4,205.3,426.4z"/>
			<path class="st13" d="M233.6,426.4c-1.9,0-3.7-0.3-5.5-1c-1.8-0.6-3.3-1.6-4.6-2.9l1.2-1.6c1.3,1.2,2.7,2.1,4.2,2.7
				c1.4,0.6,3,0.9,4.7,0.9c2.2,0,3.9-0.5,5.2-1.4c1.3-0.9,2-2.2,2-3.8c0-0.8-0.2-1.4-0.5-1.9c-0.3-0.5-0.8-1-1.5-1.3
				c-0.7-0.4-1.5-0.7-2.5-1c-1-0.3-2.1-0.6-3.4-0.9c-1.4-0.3-2.6-0.6-3.7-1c-1-0.3-1.9-0.7-2.6-1.1c-0.7-0.4-1.2-1-1.5-1.6
				c-0.3-0.6-0.5-1.5-0.5-2.4c0-1.2,0.2-2.3,0.7-3.3s1.1-1.7,2-2.3c0.8-0.6,1.8-1.1,2.9-1.4s2.3-0.5,3.5-0.5c1.9,0,3.7,0.3,5.2,1
				c1.5,0.7,2.7,1.5,3.5,2.5l-1.3,1.3c-0.8-1-1.9-1.7-3.2-2.2c-1.3-0.5-2.7-0.7-4.2-0.7c-0.9,0-1.8,0.1-2.6,0.3
				c-0.8,0.2-1.5,0.5-2.1,0.9c-0.6,0.4-1.1,0.9-1.4,1.6c-0.4,0.7-0.5,1.4-0.5,2.3c0,0.7,0.1,1.3,0.4,1.8c0.2,0.4,0.6,0.8,1.1,1.1
				s1.2,0.6,2,0.8c0.8,0.2,1.8,0.5,3,0.8c1.6,0.4,2.9,0.7,4.2,1.1c1.2,0.4,2.2,0.8,3,1.3s1.4,1.1,1.9,1.8s0.6,1.6,0.6,2.7
				c0,2.2-0.9,4-2.6,5.3C238.8,425.7,236.5,426.4,233.6,426.4z"/>
			<path class="st13" d="M259.8,424.7c-0.1,0.1-0.3,0.2-0.6,0.4c-0.3,0.2-0.7,0.3-1.1,0.5c-0.5,0.2-1,0.3-1.6,0.4
				c-0.6,0.1-1.2,0.2-1.9,0.2c-0.7,0-1.3-0.1-1.9-0.3c-0.6-0.2-1.1-0.5-1.6-0.9c-0.4-0.4-0.8-0.8-1.1-1.4c-0.3-0.5-0.4-1.2-0.4-1.9
				V403h-3.5v-2h3.5v-8.5h2.4v8.5h5.8v2h-5.8v18.2c0,0.9,0.3,1.6,1,2.1c0.6,0.5,1.4,0.7,2.2,0.7c1,0,1.8-0.2,2.6-0.5
				c0.7-0.3,1.2-0.5,1.3-0.6L259.8,424.7z"/>
			<path class="st13" d="M275.7,403.2c-2.2,0.1-4.2,0.7-5.9,2c-1.7,1.3-2.8,3-3.5,5.2v15.5H264v-24.9h2.3v6.1c0.9-1.8,2-3.2,3.4-4.3
				s2.9-1.7,4.6-1.9c0.3,0,0.6,0,0.9,0s0.5,0,0.6,0V403.2z"/>
			<path class="st13" d="M286,426.4c-1.1,0-2.2-0.2-3.2-0.6c-1-0.4-1.9-0.9-2.6-1.6c-0.7-0.7-1.3-1.5-1.7-2.4c-0.4-0.9-0.6-2-0.6-3
				c0-1.1,0.3-2.1,0.8-3c0.5-0.9,1.2-1.7,2.1-2.3c0.9-0.7,2-1.2,3.3-1.5c1.3-0.4,2.7-0.5,4.2-0.5c1.3,0,2.7,0.1,4,0.4s2.6,0.6,3.7,1
				v-2.4c0-2.4-0.7-4.2-2-5.6c-1.3-1.4-3.2-2.1-5.5-2.1c-1.2,0-2.5,0.3-3.8,0.8c-1.4,0.5-2.7,1.2-4.1,2.2l-0.9-1.6
				c3.2-2.2,6.2-3.3,9.1-3.3c3,0,5.4,0.9,7.1,2.6s2.6,4.1,2.6,7.2v12.1c0,0.8,0.4,1.2,1.1,1.2v2.2c-0.2,0-0.3,0.1-0.5,0.1
				s-0.3,0-0.5,0c-0.6,0-1.1-0.2-1.5-0.6c-0.4-0.4-0.6-0.9-0.7-1.6v-2.1c-1.1,1.5-2.6,2.6-4.4,3.4C290,426,288.1,426.4,286,426.4z
				 M286.5,424.5c1.8,0,3.5-0.3,5.1-1.1c1.5-0.7,2.7-1.6,3.6-2.8c0.5-0.7,0.8-1.3,0.8-1.9v-4.4c-1.1-0.4-2.3-0.8-3.6-1
				c-1.2-0.2-2.5-0.3-3.9-0.3c-1.2,0-2.4,0.1-3.4,0.4c-1,0.3-1.9,0.6-2.6,1.1c-0.7,0.5-1.3,1.1-1.7,1.7c-0.4,0.7-0.6,1.4-0.6,2.3
				s0.2,1.6,0.5,2.3c0.3,0.7,0.8,1.4,1.3,1.9c0.6,0.5,1.3,0.9,2,1.2C284.8,424.3,285.6,424.5,286.5,424.5z"/>
			<path class="st13" d="M305.8,391h2.4v30c0,0.9,0.3,1.7,0.8,2.2c0.5,0.5,1.3,0.8,2.2,0.8c0.4,0,0.8,0,1.3-0.1
				c0.5-0.1,0.9-0.2,1.4-0.4l0.5,1.9c-0.5,0.2-1.2,0.4-2,0.5c-0.8,0.1-1.5,0.2-2.1,0.2c-1.3,0-2.4-0.4-3.2-1.2
				c-0.8-0.8-1.2-1.9-1.2-3.3V391z"/>
			<path class="st13" d="M318,395.4V391h2.4v4.4H318z M318,425.9v-24.9h2.4v24.9H318z"/>
			<path class="st13" d="M334,426.4c-1.1,0-2.2-0.2-3.2-0.6c-1-0.4-1.9-0.9-2.6-1.6c-0.7-0.7-1.3-1.5-1.7-2.4c-0.4-0.9-0.6-2-0.6-3
				c0-1.1,0.3-2.1,0.8-3c0.5-0.9,1.2-1.7,2.1-2.3c0.9-0.7,2-1.2,3.3-1.5c1.3-0.4,2.7-0.5,4.2-0.5c1.3,0,2.7,0.1,4,0.4s2.6,0.6,3.7,1
				v-2.4c0-2.4-0.7-4.2-2-5.6c-1.3-1.4-3.2-2.1-5.5-2.1c-1.2,0-2.5,0.3-3.8,0.8c-1.4,0.5-2.7,1.2-4.1,2.2l-0.9-1.6
				c3.2-2.2,6.2-3.3,9.1-3.3c3,0,5.4,0.9,7.1,2.6s2.6,4.1,2.6,7.2v12.1c0,0.8,0.4,1.2,1.1,1.2v2.2c-0.2,0-0.3,0.1-0.5,0.1
				s-0.3,0-0.5,0c-0.6,0-1.1-0.2-1.5-0.6c-0.4-0.4-0.6-0.9-0.7-1.6v-2.1c-1.1,1.5-2.6,2.6-4.4,3.4C338,426,336.1,426.4,334,426.4z
				 M334.5,424.5c1.8,0,3.5-0.3,5.1-1.1c1.5-0.7,2.7-1.6,3.6-2.8c0.5-0.7,0.8-1.3,0.8-1.9v-4.4c-1.1-0.4-2.3-0.8-3.6-1
				c-1.2-0.2-2.5-0.3-3.9-0.3c-1.2,0-2.4,0.1-3.4,0.4c-1,0.3-1.9,0.6-2.6,1.1c-0.7,0.5-1.3,1.1-1.7,1.7c-0.4,0.7-0.6,1.4-0.6,2.3
				s0.2,1.6,0.5,2.3c0.3,0.7,0.8,1.4,1.3,1.9c0.6,0.5,1.3,0.9,2,1.2C332.7,424.3,333.6,424.5,334.5,424.5z"/>
		</g>
		<circle class="st14" cx="255.4" cy="256" r="230.6"/>
	</g>
</g>
</svg>
