<svg xmlns="http://www.w3.org/2000/svg" viewBox="0 0 170.52 167.21"><defs><style>.cls-1{font-size:18px;fill:#231f20;}.cls-1,.cls-2,.cls-5{font-family:BerlinRounded-Regular, Berlin Rounded;}.cls-2,.cls-5{font-size:35px;letter-spacing:-0.13em;}.cls-2{fill:#fff;}.cls-3{letter-spacing:-0.1em;}.cls-4{letter-spacing:-0.05em;}.cls-17,.cls-5{fill:#253a78;}.cls-10,.cls-11,.cls-12,.cls-13,.cls-14,.cls-20,.cls-6,.cls-7,.cls-8,.cls-9{fill:none;}.cls-12,.cls-6{stroke:#1a8bb2;}.cls-10,.cls-11,.cls-12,.cls-14,.cls-20,.cls-6,.cls-7,.cls-8,.cls-9{stroke-miterlimit:10;}.cls-6{stroke-width:4px;}.cls-20,.cls-7,.cls-8{stroke:#12537a;}.cls-14,.cls-20,.cls-7{stroke-linecap:round;}.cls-14,.cls-7{stroke-width:3px;}.cls-20,.cls-8,.cls-9{stroke-width:5px;}.cls-9{stroke:#253a78;}.cls-10{stroke:#238cb3;}.cls-10,.cls-11,.cls-12{stroke-width:2px;}.cls-11{stroke:#218cb3;}.cls-14{stroke:#243b78;}.cls-15{fill:#218cb3;}.cls-16{fill:#12537a;}.cls-18{fill:#1a8bb2;}.cls-19{fill:#238cb3;}</style></defs><title>Asset 26</title><g id="Layer_2" data-name="Layer 2"><g id="Layer_1-2" data-name="Layer 1"><text class="cls-1" transform="translate(10.6 163.43) scale(1.04 1)">DataEngConfAU</text><text class="cls-2" transform="translate(0 141.75)">DATA<tspan class="cls-3" x="89.18" y="0"> </tspan><tspan class="cls-4" x="97.64" y="0">ENG</tspan></text><text class="cls-5" transform="translate(0 141.75)">DATA<tspan class="cls-3" x="89.18" y="0"> </tspan><tspan class="cls-4" x="97.64" y="0">ENG</tspan></text><circle class="cls-6" cx="100.78" cy="12.38" r="10.26"/><circle class="cls-6" cx="123.28" cy="65.91" r="10.24"/><circle class="cls-6" cx="69.54" cy="89.05" r="10.24"/><circle class="cls-6" cx="46.98" cy="35.31" r="10.24"/><path class="cls-7" d="M42.76,54.14a10.56,10.56,0,1,0,8.48,0"/><circle class="cls-8" cx="94.3" cy="37.17" r="6.65"/><circle class="cls-9" cx="71.64" cy="41.33" r="6.65"/><circle class="cls-9" cx="98.61" cy="60.12" r="6.65"/><circle class="cls-10" cx="123.71" cy="37.03" r="6.65"/><circle class="cls-11" cx="98.18" cy="88.81" r="6.65"/><circle class="cls-12" cx="46.82" cy="63.71" r="6.65"/><circle class="cls-11" cx="72.06" cy="12.05" r="6.65"/><rect class="cls-13" x="43.1" y="51.9" width="8.46" height="3.44"/><path class="cls-14" d="M81.72,8.62A10.7,10.7,0,0,0,61,11.85,10.7,10.7,0,0,0,81,17.07"/><path class="cls-7" d="M127.68,46.8a10.56,10.56,0,1,0-8.48-.09"/><path class="cls-14" d="M88.63,92.52a10.56,10.56,0,1,0,.52-8.47"/><rect class="cls-15" x="77.85" y="10.93" width="12.25" height="3.01"/><rect class="cls-16" x="57.2" y="62.28" width="12.25" height="3.01"/><rect class="cls-15" x="79.76" y="87.62" width="12.25" height="3.01"/><rect class="cls-16" x="100.8" y="35.8" width="12.25" height="3.01"/><rect class="cls-17" x="92.3" y="70.66" width="12.25" height="3.65" transform="translate(25.94 170.92) rotate(-90)"/><rect class="cls-17" x="65.72" y="27.06" width="12.25" height="3.65" transform="translate(42.96 100.73) rotate(-90)"/><rect class="cls-18" x="40.85" y="49.85" width="12.25" height="3.01" transform="translate(-4.39 98.33) rotate(-90)"/><rect class="cls-19" x="117.3" y="48.13" width="12.25" height="3.01" transform="translate(73.78 173.06) rotate(-90)"/><circle class="cls-20" cx="75.66" cy="64.14" r="6.65"/></g></g></svg>