<?xml version="1.0" encoding="utf-8"?>
<!-- Generator: Adobe Illustrator 25.2.3, SVG Export Plug-In . SVG Version: 6.00 Build 0)  -->
<svg version="1.1" id="Layer_1" xmlns="http://www.w3.org/2000/svg" xmlns:xlink="http://www.w3.org/1999/xlink" x="0px" y="0px"
	 viewBox="0 0 450 450" style="enable-background:new 0 0 450 450;" xml:space="preserve">
<style type="text/css">
	.st0{fill:none;stroke:#FFFFFF;stroke-width:7;stroke-miterlimit:10;}
	.st1{font-family:'ArialMT';}
	.st2{font-size:12.0005px;}
	.st3{fill:none;}
	.st4{fill:#FFFFFF;}
	.st5{fill:none;stroke:#000000;stroke-width:7;stroke-miterlimit:10;}
</style>
<path class="st0" d="M225,28.3c108.7,0,196.7,88,196.7,196.7s-88,196.7-196.7,196.7c-66.6,0-125.4-33.1-161.1-83.7
	C41.4,306,28.3,267,28.3,225C28.3,116.3,116.3,28.3,225,28.3z"/>
<text transform="matrix(-0.8525 -0.5228 0.5228 -0.8525 204.2698 386.0487)" class="st1 st2"> </text>
<text transform="matrix(1 0 0 1 -201 0)" class="st1" style="font-size:12px;"> </text>
<polygon class="st3" points="14,592 557,592 557,592 "/>
<g>
	<g>
		<g>
			<g>
				<path class="st4" d="M174,307.9c-23.7,0-43.1-19.4-43.1-43.1c0-23.8,19.4-43.1,43.1-43.1c4.7,0,8.6,3.8,8.6,8.6
					s-3.8,8.6-8.6,8.6c-14.3,0-25.9,11.7-25.9,25.9c0,14.2,11.7,25.9,25.9,25.9c4.7,0,8.6,3.8,8.6,8.6
					C182.7,304.1,178.8,307.9,174,307.9z"/>
			</g>
			<g>
				<path class="st4" d="M275.2,310c-23.7,0-43.1-19.4-43.1-43.1c0-4.7,3.8-8.6,8.6-8.6s8.6,3.8,8.6,8.6c0,14.3,11.7,25.9,25.9,25.9
					s25.9-11.7,25.9-25.9c0-4.7,3.8-8.6,8.6-8.6c4.7,0,8.6,3.8,8.6,8.6C318.4,290.6,299.1,310,275.2,310z"/>
			</g>
			<path class="st4" d="M275.5,152.9L275.5,152.9C275.4,152.9,275.4,152.9,275.5,152.9c-23.8,0-43.2,19.4-43.2,43.1
				c0,4.7,3.8,8.6,8.6,8.6s8.6-3.8,8.6-8.6c0-14.3,11.7-25.9,25.9-25.9l0,0l0,0c14.3,0,25.9,11.7,25.9,25.9s-11.7,25.9-25.9,25.9
				c-4.7,0-8.6,3.8-8.6,8.6s3.8,8.6,8.6,8.6c23.7,0,43.1-19.4,43.1-43.1S299.2,152.9,275.5,152.9z"/>
			<g>
				<path class="st4" d="M172.5,307.9L172.5,307.9c-4.7,0-8.6-3.8-8.6-8.6s3.8-8.6,8.6-8.6l0,0c6.9,0,13.5-2.7,18.4-7.6
					s7.6-11.4,7.6-18.4V106.6c0-4.7,3.8-8.6,8.6-8.6s8.6,3.8,8.6,8.6v158.2c0,11.5-4.5,22.3-12.6,30.5
					C194.9,303.4,183.9,307.9,172.5,307.9z"/>
			</g>
			<circle class="st4" cx="309.6" cy="265.8" r="8.6"/>
			<g>
				<path class="st4" d="M275,239H174.1c-4.7,0-8.6-3.8-8.6-8.6s3.8-8.6,8.6-8.6H275c4.7,0,8.6,3.8,8.6,8.6S279.8,239,275,239z"/>
			</g>
			<circle class="st4" cx="172.5" cy="230.4" r="8.6"/>
			<circle class="st4" cx="172.5" cy="299.4" r="8.6"/>
			<g>
				<path class="st4" d="M240.8,274.1c-4.7,0-8.6-3.8-8.6-8.6v-70c0-4.7,3.8-8.6,8.6-8.6s8.6,3.8,8.6,8.6v70
					C249.4,270.4,245.5,274.1,240.8,274.1z"/>
			</g>
			<circle class="st4" cx="240.8" cy="194.9" r="8.6"/>
		</g>
	</g>
</g>
<text transform="matrix(1 0 0 1 -201 0)" class="st1" style="font-size:12px;"> </text>
<text transform="matrix(1 0 0 1 -201 0)" class="st1" style="font-size:12px;"> </text>
<path class="st5" d="M201.1,387.9"/>
<path class="st5" d="M201.1,387.9"/>
<path class="st5" d="M201.1,387.9"/>
<path class="st0" d="M225,100c69,0,125,55.9,125,125S294,350,225,350c-42.3,0-79.7-21-102.4-53.2C108.4,276.5,100,251.7,100,225
	C100,156,156,100,225,100z"/>
<path id="SVGID_x5F_1_x5F_" class="st3" d="M225,100c69,0,125,55.9,125,125S294,350,225,350c-42.3,0-79.7-21-102.4-53.2
	C108.4,276.5,100,251.7,100,225C100,156,156,100,225,100z"/>
<text><textPath  xlink:href="#SVGID_x5F_1_x5F_" startOffset="175%">
<tspan  class="st4" style="font-family:'DDCHardware-Compressed'; font-size:63px; letter-spacing:-10;">DATAENGBYTES</tspan></textPath>
</text>
<path id="SVGID_x5F_2_x5F_" class="st3" d="M225,100c-69,0-125,55.9-125,125c0,26.7,8.3,51.5,22.6,71.8
	c22.7,32.2,60,53.2,102.4,53.2c69,0,125-55.9,125-125S294,100,225,100z"/>
<text><textPath  xlink:href="#SVGID_x5F_2_x5F_" startOffset="5500.0732%">
<tspan  class="st4" style="font-family:'DDCHardware-Compressed'; font-size:57px; letter-spacing:-39.8;">2022</tspan></textPath>
</text>
</svg>
