<svg xmlns="http://www.w3.org/2000/svg" viewBox="0 0 361.59 101.29"><defs><style>.cls-1,.cls-4{font-size:51.79px;font-family:BerlinRounded-Regular, Berlin Rounded;letter-spacing:-0.13em;}.cls-1{fill:#fff;}.cls-2{letter-spacing:-0.1em;}.cls-3{letter-spacing:-0.05em;}.cls-17,.cls-4{fill:#1a8bb2;}.cls-10,.cls-11,.cls-12,.cls-13,.cls-19,.cls-5,.cls-6,.cls-7,.cls-8,.cls-9{fill:none;}.cls-11,.cls-5{stroke:#1a8bb2;}.cls-10,.cls-11,.cls-13,.cls-19,.cls-5,.cls-6,.cls-7,.cls-8,.cls-9{stroke-miterlimit:10;}.cls-5{stroke-width:4px;}.cls-19,.cls-6,.cls-7{stroke:#12537a;}.cls-13,.cls-19,.cls-6{stroke-linecap:round;}.cls-13,.cls-6{stroke-width:3px;}.cls-19,.cls-7,.cls-8{stroke-width:5px;}.cls-8{stroke:#253a78;}.cls-9{stroke:#238cb3;}.cls-10,.cls-11,.cls-9{stroke-width:2px;}.cls-10{stroke:#218cb3;}.cls-13{stroke:#243b78;}.cls-14{fill:#218cb3;}.cls-15{fill:#12537a;}.cls-16{fill:#253a78;}.cls-18{fill:#238cb3;}</style></defs><title>Asset 23</title><g id="Layer_2" data-name="Layer 2"><g id="Layer_1-2" data-name="Layer 1"><text class="cls-1" transform="translate(109.24 67.46)">DATA<tspan class="cls-2" x="131.96" y="0"> </tspan><tspan class="cls-3" x="144.49" y="0">ENG</tspan></text><text class="cls-4" transform="translate(109.24 67.46)">DATA<tspan class="cls-2" x="131.96" y="0"> </tspan><tspan class="cls-3" x="144.49" y="0">ENG</tspan></text><circle class="cls-5" cx="66.04" cy="12.38" r="10.26"/><circle class="cls-5" cx="88.54" cy="65.91" r="10.24"/><circle class="cls-5" cx="34.8" cy="89.05" r="10.24"/><circle class="cls-5" cx="12.24" cy="35.31" r="10.24"/><path class="cls-6" d="M8,54.14a10.7,10.7,0,0,0,4.92,20.44A10.7,10.7,0,0,0,16.5,54.15"/><circle class="cls-7" cx="59.56" cy="37.17" r="6.65"/><circle class="cls-8" cx="36.9" cy="41.33" r="6.65"/><circle class="cls-8" cx="63.87" cy="60.12" r="6.65"/><circle class="cls-9" cx="88.97" cy="37.03" r="6.65"/><circle class="cls-10" cx="63.44" cy="88.81" r="6.65"/><circle class="cls-11" cx="12.08" cy="63.71" r="6.65"/><circle class="cls-10" cx="37.32" cy="12.05" r="6.65"/><rect class="cls-12" x="8.36" y="51.9" width="8.46" height="3.44"/><path class="cls-13" d="M47,8.62a10.7,10.7,0,0,0-20.77,3.23,10.7,10.7,0,0,0,20.06,5.22"/><path class="cls-6" d="M92.94,46.8a10.56,10.56,0,1,0-8.48-.09"/><path class="cls-13" d="M53.89,92.52a10.56,10.56,0,1,0,.52-8.47"/><rect class="cls-14" x="43.11" y="10.93" width="12.25" height="3.01"/><rect class="cls-15" x="22.46" y="62.28" width="12.25" height="3.01"/><rect class="cls-14" x="45.02" y="87.62" width="12.25" height="3.01"/><rect class="cls-15" x="66.06" y="35.8" width="12.25" height="3.01"/><rect class="cls-16" x="57.56" y="70.66" width="12.25" height="3.65" transform="translate(-8.8 136.18) rotate(-90)"/><rect class="cls-16" x="30.98" y="27.06" width="12.25" height="3.65" transform="translate(8.22 65.99) rotate(-90)"/><rect class="cls-17" x="6.11" y="49.85" width="12.25" height="3.01" transform="translate(-39.13 63.59) rotate(-90)"/><rect class="cls-18" x="82.56" y="48.13" width="12.25" height="3.01" transform="translate(39.04 138.32) rotate(-90)"/><circle class="cls-19" cx="40.92" cy="64.14" r="6.65"/></g></g></svg>