<svg xmlns="http://www.w3.org/2000/svg" width="387" height="89" fill="none" viewBox="0 0 387 89">
  <g clip-path="url(#a)">
    <path fill="#160937" d="M126.249 37.191c-3.502 0-6.479 1.222-8.93 3.665-2.452 2.443-3.678 5.41-3.678 8.9 0 3.439 1.226 6.373 3.678 8.803a11.221 11.221 0 0 0 4.066 2.754c1.544.62 3.165.93 4.864.93 1.687 0 3.289-.31 4.806-.93 1.531-.608 2.906-1.526 4.125-2.754 2.452-2.43 3.677-5.364 3.677-8.803 0-3.49-1.225-6.457-3.677-8.9-2.568-2.443-5.545-3.665-8.931-3.665Zm0-10.47c3.204 0 6.207.595 9.009 1.784a23.152 23.152 0 0 1 7.374 4.944c2.088 2.094 3.736 4.538 4.942 7.33 1.194 2.792 1.79 5.784 1.79 8.977 0 3.141-.596 6.108-1.79 8.9-1.206 2.792-2.854 5.236-4.942 7.33-2.114 2.094-4.572 3.736-7.374 4.925-2.802 1.189-5.805 1.784-9.009 1.784-3.217 0-6.226-.595-9.028-1.784-2.802-1.19-5.247-2.831-7.335-4.925-2.101-2.095-3.755-4.538-4.962-7.33-1.193-2.792-1.79-5.759-1.79-8.9 0-3.193.597-6.185 1.79-8.977 1.207-2.793 2.861-5.236 4.962-7.33 2.088-2.107 4.533-3.755 7.335-4.944 2.802-1.19 5.811-1.784 9.028-1.784Zm74.423 0c2.452 0 4.599.465 6.441 1.396a12.48 12.48 0 0 1 4.514 3.84c1.154 1.628 2.023 3.522 2.607 5.68.584 2.146.875 4.473.875 6.98V71.57h-10.506V44.618c0-2.043-.727-3.794-2.18-5.255-1.4-1.448-3.152-2.172-5.253-2.172s-3.852.724-5.253 2.172c-1.453 1.46-2.179 3.212-2.179 5.255V71.57h-10.527V44.618c0-2.043-.726-3.794-2.179-5.255a6.43 6.43 0 0 0-2.413-1.648 7.747 7.747 0 0 0-2.84-.524c-2.154 0-3.931.724-5.332 2.172-1.465 1.46-2.198 3.212-2.198 5.255V71.57h-10.507V27.943h10.507v3.839a27.92 27.92 0 0 1 5.331-3.626c1.868-.957 3.768-1.435 5.701-1.435 2.62 0 4.78.523 6.479 1.57 1.686 1.048 3.204 2.502 4.553 4.363 1.57-1.693 3.613-3.102 6.129-4.227 2.504-1.137 5.247-1.706 8.23-1.706Zm42.203 0c2.853 0 5.448.536 7.782 1.61a18.201 18.201 0 0 1 6.013 4.459c1.66 1.887 2.944 4.078 3.852 6.573.895 2.508 1.343 5.19 1.343 8.047v24.16h-10.507V47.41c0-2.908-1.018-5.326-3.055-7.252-1.984-1.978-4.378-2.967-7.18-2.967-2.866 0-5.292.99-7.276 2.967-1.985 1.978-2.977 4.395-2.977 7.252v24.16h-10.507V27.943h10.507v3.315a21.352 21.352 0 0 1 5.35-3.277c1.985-.84 4.203-1.26 6.655-1.26Zm58.663 1.144h10.506V71.57h-10.506V49.756c0-3.49-1.226-6.457-3.678-8.9-2.451-2.443-5.428-3.665-8.931-3.665-1.699 0-3.32.324-4.864.97a12.334 12.334 0 0 0-4.066 2.695c-2.452 2.443-3.678 5.41-3.678 8.9 0 3.439 1.226 6.373 3.678 8.803a11.23 11.23 0 0 0 4.066 2.754c1.544.62 3.165.93 4.864.93 1.752 0 3.328-.29 4.728-.872l3.756 9.326c-2.685 1.332-5.805 1.998-9.359 1.998-3.217 0-6.181-.595-8.892-1.784-2.711-1.19-5.059-2.831-7.043-4.925-1.985-2.095-3.535-4.538-4.651-7.33-1.102-2.792-1.654-5.759-1.654-8.9 0-3.193.552-6.185 1.654-8.977 1.116-2.793 2.666-5.236 4.651-7.33 1.984-2.107 4.332-3.755 7.043-4.944 2.711-1.19 5.675-1.784 8.892-1.784 2.854 0 5.389.44 7.608 1.319 2.218.866 4.176 1.964 5.876 3.296v-3.471Zm37.124 33.234 2.626 10.471h-9.631c-1.985 0-3.852-.375-5.604-1.125-1.751-.762-3.268-1.796-4.553-3.102a15.13 15.13 0 0 1-3.074-4.576c-.752-1.745-1.128-3.607-1.128-5.584V19.14l10.507-2.618v16.656h6.128l2.627 10.47h-8.755v13.535c0 1.098.376 2.03 1.128 2.792.765.75 1.673 1.124 2.724 1.124h7.005Zm37.824-33.234h10.507V71.57h-10.507V49.756c0-3.49-1.226-6.457-3.677-8.9-2.452-2.443-5.429-3.665-8.931-3.665-1.699 0-3.321.324-4.864.97a12.328 12.328 0 0 0-4.067 2.695c-2.452 2.443-3.677 5.41-3.677 8.9 0 3.439 1.225 6.373 3.677 8.803a11.225 11.225 0 0 0 4.067 2.754c1.543.62 3.165.93 4.864.93 1.751 0 3.327-.29 4.728-.872l3.755 9.326c-2.685 1.332-5.805 1.998-9.359 1.998-3.217 0-6.181-.595-8.892-1.784-2.711-1.19-5.058-2.831-7.043-4.925-1.985-2.095-3.535-4.538-4.65-7.33-1.103-2.792-1.654-5.759-1.654-8.9 0-3.193.551-6.185 1.654-8.977 1.115-2.793 2.665-5.236 4.65-7.33 1.985-2.107 4.332-3.755 7.043-4.944 2.711-1.19 5.675-1.784 8.892-1.784 2.854 0 5.39.44 7.608 1.319 2.218.866 4.177 1.964 5.876 3.296v-3.471Z"/>
    <path fill="#160937" fill-rule="evenodd" d="M76.627 13.553a44.777 44.777 0 0 0-14.32-9.785L59.56 9.127l-.643 1.223-.993 1.98-.35.64h-.702A34.418 34.418 0 0 0 27.7 15.145a34.267 34.267 0 0 0-11.116 10.02 34.127 34.127 0 0 0-5.77 13.785l6.722-.292a27.747 27.747 0 0 1 5.982-11.969 27.878 27.878 0 0 1 10.9-7.798 27.969 27.969 0 0 1 25.901 2.76l3.332-6.407.993-1.98.41-.816.76.524A38.09 38.09 0 0 1 77.496 25.3a37.916 37.916 0 0 1 2.726 32.952 38.026 38.026 0 0 1-9.5 14.07l3.566 5.534a44.512 44.512 0 0 0 10.647-14.262 44.363 44.363 0 0 0 1.27-34.813 44.482 44.482 0 0 0-9.579-14.996v-.233Z" clip-rule="evenodd"/>
    <path fill="#160937" fill-rule="evenodd" d="M44.13.099a44.783 44.783 0 0 0-18.123 4.058A44.643 44.643 0 0 0 11.11 15.212a44.46 44.46 0 0 0-9.095 16.14 44.354 44.354 0 0 0-1.72 18.43h10.404v.7c.284 1.005.616 1.996.994 2.97a34.124 34.124 0 0 0 1.11 3.378 34.24 34.24 0 0 0 17.94 18.95 34.418 34.418 0 0 0 26.13.854l-3.566-5.825a27.972 27.972 0 0 1-23.47-2.86 27.833 27.833 0 0 1-8.623-8.477 27.725 27.725 0 0 1-4.202-11.32 27.93 27.93 0 0 1 0-5.825H6.49v-.233a37.939 37.939 0 0 1 4.88-16.272 38.083 38.083 0 0 1 11.503-12.533 38.241 38.241 0 0 1 15.829-6.294 38.293 38.293 0 0 1 17 1.2l3.04-5.825A44.736 44.736 0 0 0 44.13.1Z" clip-rule="evenodd"/>
    <path fill="#160937" fill-rule="evenodd" d="M66.516 83.39a44.788 44.788 0 0 0 4.85-3.087l-3.564-5.824-.41-.641-1.169-1.864-.409-.64.585-.466A34.218 34.218 0 0 0 78.76 48.562a34.16 34.16 0 0 0-6.517-24.64 33.965 33.965 0 0 0-5.845-5.826l-3.04 5.825a27.777 27.777 0 0 1 7.467 11.176 27.693 27.693 0 0 1 1.336 13.361 27.73 27.73 0 0 1-5.108 12.425 27.858 27.858 0 0 1-10.358 8.587l3.916 5.824 1.17 1.864.525.757-.818.408-1.578.757-1.636.64a38.288 38.288 0 0 1-29.051-.581 38.095 38.095 0 0 1-20.22-20.794 45.597 45.597 0 0 1-.936-2.738c0-.699-.409-1.456-.584-2.155l-6.546.116c0 .99.467 2.039.76 3.03.292.99.818 2.562 1.285 3.843a44.565 44.565 0 0 0 23.479 24.733 44.796 44.796 0 0 0 34.15.954 45.192 45.192 0 0 0 5.904-2.738Z" clip-rule="evenodd"/>
  </g>
  <defs>
    <clipPath id="a">
      <path fill="#fff" d="M0 0h387v89H0z"/>
    </clipPath>
  </defs>
</svg>
