<?xml version="1.0" encoding="UTF-8" standalone="no"?>
<!DOCTYPE svg PUBLIC "-//W3C//DTD SVG 1.1//EN" "http://www.w3.org/Graphics/SVG/1.1/DTD/svg11.dtd">
<svg version="1.1" xmlns="http://www.w3.org/2000/svg" xmlns:xlink="http://www.w3.org/1999/xlink" preserveAspectRatio="xMidYMid meet" viewBox="0 0 200 200" width="200" height="200"><defs><path d="M108.92 34.81C108.92 44.5 116.78 52.36 126.48 52.36C136.18 52.36 144.04 44.5 144.04 34.81C144.04 25.11 136.18 17.25 126.48 17.25C116.78 17.25 108.92 25.11 108.92 34.81Z" id="d4SFZa8sz"></path><path d="M108.92 34.81C108.92 44.5 116.78 52.36 126.48 52.36C136.18 52.36 144.04 44.5 144.04 34.81C144.04 25.11 136.18 17.25 126.48 17.25C116.78 17.25 108.92 25.11 108.92 34.81Z" id="d2ypTfi67U"></path><path d="M147.46 126.4C147.46 136.08 155.3 143.92 164.98 143.92C174.66 143.92 182.5 136.08 182.5 126.4C182.5 116.72 174.66 108.88 164.98 108.88C155.3 108.88 147.46 116.72 147.46 126.4Z" id="eV6SlkTFH"></path><path d="M147.46 126.4C147.46 136.08 155.3 143.92 164.98 143.92C174.66 143.92 182.5 136.08 182.5 126.4C182.5 116.72 174.66 108.88 164.98 108.88C155.3 108.88 147.46 116.72 147.46 126.4Z" id="aldIeDCeN"></path><path d="M55.5 165.99C55.5 175.67 63.35 183.52 73.03 183.52C82.7 183.52 90.55 175.67 90.55 165.99C90.55 156.32 82.7 148.47 73.03 148.47C63.35 148.47 55.5 156.32 55.5 165.99Z" id="e7te4UsKr"></path><path d="M55.5 165.99C55.5 175.67 63.35 183.52 73.03 183.52C82.7 183.52 90.55 175.67 90.55 165.99C90.55 156.32 82.7 148.47 73.03 148.47C63.35 148.47 55.5 156.32 55.5 165.99Z" id="a4ZMxrUbgS"></path><path d="M16.9 74.04C16.9 83.72 24.75 91.56 34.42 91.56C44.1 91.56 51.95 83.72 51.95 74.04C51.95 64.36 44.1 56.52 34.42 56.52C24.75 56.52 16.9 64.36 16.9 74.04Z" id="l1anpw4O8a"></path><path d="M16.9 74.04C16.9 83.72 24.75 91.56 34.42 91.56C44.1 91.56 51.95 83.72 51.95 74.04C51.95 64.36 44.1 56.52 34.42 56.52C24.75 56.52 16.9 64.36 16.9 74.04Z" id="d52ayhLCTh"></path><path d="M27.17 106.26C17.95 110.42 13.85 121.26 18.01 130.48C21.11 137.33 28.08 141.6 35.59 141.24C45.67 140.47 53.23 131.68 52.47 121.6C51.96 114.91 47.84 109.03 41.71 106.28" id="eJD0nV1bt"></path><path d="M27.17 106.26C17.95 110.42 13.85 121.26 18.01 130.48C21.11 137.33 28.08 141.6 35.59 141.24C45.67 140.47 53.23 131.68 52.47 121.6C51.96 114.91 47.84 109.03 41.71 106.28" id="b9UVaisqQ4"></path><path d="M104.01 77.22C104.01 83.51 109.11 88.6 115.39 88.6C121.68 88.6 126.77 83.51 126.77 77.22C126.77 70.94 121.68 65.84 115.39 65.84C109.11 65.84 104.01 70.94 104.01 77.22Z" id="d28GlMbUdR"></path><path d="M104.01 77.22C104.01 83.51 109.11 88.6 115.39 88.6C121.68 88.6 126.77 83.51 126.77 77.22C126.77 70.94 121.68 65.84 115.39 65.84C109.11 65.84 104.01 70.94 104.01 77.22Z" id="gcbMMdDlY"></path><path d="M65.24 84.34C65.24 90.63 70.34 95.72 76.62 95.72C82.9 95.72 88 90.63 88 84.34C88 78.06 82.9 72.96 76.62 72.96C70.34 72.96 65.24 78.06 65.24 84.34Z" id="bcsoHH9kK"></path><path d="M65.24 84.34C65.24 90.63 70.34 95.72 76.62 95.72C82.9 95.72 88 90.63 88 84.34C88 78.06 82.9 72.96 76.62 72.96C70.34 72.96 65.24 78.06 65.24 84.34Z" id="eaBn7Juvz"></path><path d="M111.42 115.68C110.97 121.94 115.68 127.39 121.95 127.84C128.22 128.29 133.67 123.58 134.12 117.31C134.57 111.04 129.85 105.59 123.59 105.14C117.32 104.69 111.87 109.41 111.42 115.68Z" id="a169bRBBbz"></path><path d="M111.42 115.68C110.97 121.94 115.68 127.39 121.95 127.84C128.22 128.29 133.67 123.58 134.12 117.31C134.57 111.04 129.85 105.59 123.59 105.14C117.32 104.69 111.87 109.41 111.42 115.68Z" id="a1WaXDkRGS"></path><path d="M154.34 76.98C154.34 83.27 159.43 88.36 165.72 88.36C172 88.36 177.09 83.27 177.09 76.98C177.09 70.7 172 65.6 165.72 65.6C159.43 65.6 154.34 70.7 154.34 76.98Z" id="b5KmNijRBR"></path><path d="M154.34 76.98C154.34 83.27 159.43 88.36 165.72 88.36C172 88.36 177.09 83.27 177.09 76.98C177.09 70.7 172 65.6 165.72 65.6C159.43 65.6 154.34 70.7 154.34 76.98Z" id="a224n5Sb2"></path><path d="M110.65 165.58C110.65 171.87 115.75 176.96 122.03 176.96C128.32 176.96 133.41 171.87 133.41 165.58C133.41 159.3 128.32 154.21 122.03 154.21C115.75 154.21 110.65 159.3 110.65 165.58Z" id="d7KGXebaGS"></path><path d="M110.65 165.58C110.65 171.87 115.75 176.96 122.03 176.96C128.32 176.96 133.41 171.87 133.41 165.58C133.41 159.3 128.32 154.21 122.03 154.21C115.75 154.21 110.65 159.3 110.65 165.58Z" id="d4eGBa7Pc4"></path><path d="M22.77 122.64C22.77 128.92 27.87 134.01 34.15 134.01C40.43 134.01 45.53 128.92 45.53 122.64C45.53 116.35 40.43 111.26 34.15 111.26C27.87 111.26 22.77 116.35 22.77 122.64Z" id="av9V21YeG"></path><path d="M22.77 122.64C22.77 128.92 27.87 134.01 34.15 134.01C40.43 134.01 45.53 128.92 45.53 122.64C45.53 116.35 40.43 111.26 34.15 111.26C27.87 111.26 22.77 116.35 22.77 122.64Z" id="f41PcyrJCM"></path><path d="M172.63 94.57C181.81 90.66 186.08 80.05 182.17 70.87C178.26 61.69 167.65 57.41 158.47 61.32C149.29 65.23 145.02 75.85 148.92 85.03C150.7 89.2 153.98 92.55 158.12 94.42" id="bl5rtarMQ"></path><path d="M172.63 94.57C181.81 90.66 186.08 80.05 182.17 70.87C178.26 61.69 167.65 57.41 158.47 61.32C149.29 65.23 145.02 75.85 148.92 85.03C150.7 89.2 153.98 92.55 158.12 94.42" id="c41tcBuNX"></path><path d="M65.96 34.24C65.96 40.52 71.05 45.62 77.34 45.62C83.62 45.62 88.72 40.52 88.72 34.24C88.72 27.96 83.62 22.86 77.34 22.86C71.05 22.86 65.96 27.96 65.96 34.24Z" id="e1x8hwZvO3"></path><path d="M65.96 34.24C65.96 40.52 71.05 45.62 77.34 45.62C83.62 45.62 88.72 40.52 88.72 34.24C88.72 27.96 83.62 22.86 77.34 22.86C71.05 22.86 65.96 27.96 65.96 34.24Z" id="c6vnWdn4OJ"></path><path d="M42.26 102.43C42.26 105.96 42.26 107.92 42.26 108.31C42.26 108.31 42.26 108.31 42.26 108.31C33.58 108.31 28.75 108.31 27.78 108.31C27.78 108.31 27.78 108.31 27.78 108.31C27.78 104.78 27.78 102.82 27.78 102.43C27.78 102.43 27.78 102.43 27.78 102.43C36.47 102.43 41.3 102.43 42.26 102.43C42.26 102.43 42.26 102.43 42.26 102.43Z" id="jsmqk6WXR"></path><path d="M42.26 102.43C42.26 105.96 42.26 107.92 42.26 108.31C42.26 108.31 42.26 108.31 42.26 108.31C33.58 108.31 28.75 108.31 27.78 108.31C27.78 108.31 27.78 108.31 27.78 108.31C27.78 104.78 27.78 102.82 27.78 102.43C27.78 102.43 27.78 102.43 27.78 102.43C36.47 102.43 41.3 102.43 42.26 102.43C42.26 102.43 42.26 102.43 42.26 102.43Z" id="cgtP2efUF"></path><path d="M94.88 28.37C91.48 18.85 81 13.89 71.48 17.29C64.41 19.81 59.6 26.4 59.34 33.9C59.3 44.01 67.47 52.23 77.59 52.27C84.26 52.29 90.43 48.67 93.66 42.83" id="b2DcPqYbXV"></path><path d="M94.88 28.37C91.48 18.85 81 13.89 71.48 17.29C64.41 19.81 59.6 26.4 59.34 33.9C59.3 44.01 67.47 52.23 77.59 52.27C84.26 52.29 90.43 48.67 93.66 42.83" id="a1E57i3gIT"></path><path d="M105.69 171.93C109.13 181.3 119.52 186.1 128.88 182.66C138.25 179.22 143.05 168.83 139.61 159.47C136.17 150.1 125.79 145.3 116.42 148.74C112.16 150.3 108.65 153.41 106.58 157.44" id="b1EuMZc17V"></path><path d="M105.69 171.93C109.13 181.3 119.52 186.1 128.88 182.66C138.25 179.22 143.05 168.83 139.61 159.47C136.17 150.1 125.79 145.3 116.42 148.74C112.16 150.3 108.65 153.41 106.58 157.44" id="c2Iy5YbrkZ"></path><path d="M108.21 32.32C108.21 35.41 108.21 37.13 108.21 37.47C108.21 37.47 108.21 37.47 108.21 37.47C95.63 37.47 88.64 37.47 87.25 37.47C87.25 37.47 87.25 37.47 87.25 37.47C87.25 34.38 87.25 32.67 87.25 32.32C87.25 32.32 87.25 32.32 87.25 32.32C99.82 32.32 106.81 32.32 108.21 32.32C108.21 32.32 108.21 32.32 108.21 32.32Z" id="bP9XMuPOP"></path><path d="M108.21 32.32C108.21 35.41 108.21 37.13 108.21 37.47C108.21 37.47 108.21 37.47 108.21 37.47C95.63 37.47 88.64 37.47 87.25 37.47C87.25 37.47 87.25 37.47 87.25 37.47C87.25 34.38 87.25 32.67 87.25 32.32C87.25 32.32 87.25 32.32 87.25 32.32C99.82 32.32 106.81 32.32 108.21 32.32C108.21 32.32 108.21 32.32 108.21 32.32Z" id="cngERAMnj"></path><path d="M72.87 120.19C72.87 123.28 72.87 125 72.87 125.34C72.87 125.34 72.87 125.34 72.87 125.34C60.3 125.34 53.31 125.34 51.91 125.34C51.91 125.34 51.91 125.34 51.91 125.34C51.91 122.25 51.91 120.53 51.91 120.19C51.91 120.19 51.91 120.19 51.91 120.19C64.49 120.19 71.47 120.19 72.87 120.19C72.87 120.19 72.87 120.19 72.87 120.19Z" id="aAD7nfSRz"></path><path d="M72.87 120.19C72.87 123.28 72.87 125 72.87 125.34C72.87 125.34 72.87 125.34 72.87 125.34C60.3 125.34 53.31 125.34 51.91 125.34C51.91 125.34 51.91 125.34 51.91 125.34C51.91 122.25 51.91 120.53 51.91 120.19C51.91 120.19 51.91 120.19 51.91 120.19C64.49 120.19 71.47 120.19 72.87 120.19C72.87 120.19 72.87 120.19 72.87 120.19Z" id="chUgoTuNU"></path><path d="M111.47 163.55C111.47 166.64 111.47 168.35 111.47 168.7C111.47 168.7 111.47 168.7 111.47 168.7C98.9 168.7 91.91 168.7 90.51 168.7C90.51 168.7 90.51 168.7 90.51 168.7C90.51 165.61 90.51 163.89 90.51 163.55C90.51 163.55 90.51 163.55 90.51 163.55C103.09 163.55 110.08 163.55 111.47 163.55C111.47 163.55 111.47 163.55 111.47 163.55Z" id="b8Z6uJpfpa"></path><path d="M111.47 163.55C111.47 166.64 111.47 168.35 111.47 168.7C111.47 168.7 111.47 168.7 111.47 168.7C98.9 168.7 91.91 168.7 90.51 168.7C90.51 168.7 90.51 168.7 90.51 168.7C90.51 165.61 90.51 163.89 90.51 163.55C90.51 163.55 90.51 163.55 90.51 163.55C103.09 163.55 110.08 163.55 111.47 163.55C111.47 163.55 111.47 163.55 111.47 163.55Z" id="buZ7oe3Ls"></path><path d="M147.48 74.88C147.48 77.97 147.48 79.69 147.48 80.03C147.48 80.03 147.48 80.03 147.48 80.03C134.9 80.03 127.91 80.03 126.51 80.03C126.51 80.03 126.51 80.03 126.51 80.03C126.51 76.94 126.51 75.22 126.51 74.88C126.51 74.88 126.51 74.88 126.51 74.88C139.09 74.88 146.08 74.88 147.48 74.88C147.48 74.88 147.48 74.88 147.48 74.88Z" id="aG8fpb0Zk"></path><path d="M147.48 74.88C147.48 77.97 147.48 79.69 147.48 80.03C147.48 80.03 147.48 80.03 147.48 80.03C134.9 80.03 127.91 80.03 126.51 80.03C126.51 80.03 126.51 80.03 126.51 80.03C126.51 76.94 126.51 75.22 126.51 74.88C126.51 74.88 126.51 74.88 126.51 74.88C139.09 74.88 146.08 74.88 147.48 74.88C147.48 74.88 147.48 74.88 147.48 74.88Z" id="b2fV7LDuRw"></path><path d="M119.64 127.51C123.39 127.51 125.47 127.51 125.89 127.51C125.89 127.51 125.89 127.51 125.89 127.51C125.89 140.09 125.89 147.08 125.89 148.47C125.89 148.47 125.89 148.47 125.89 148.47C122.14 148.47 120.06 148.47 119.64 148.47C119.64 148.47 119.64 148.47 119.64 148.47C119.64 135.9 119.64 128.91 119.64 127.51C119.64 127.51 119.64 127.51 119.64 127.51Z" id="bbtJDUx3"></path><path d="M119.64 127.51C123.39 127.51 125.47 127.51 125.89 127.51C125.89 127.51 125.89 127.51 125.89 127.51C125.89 140.09 125.89 147.08 125.89 148.47C125.89 148.47 125.89 148.47 125.89 148.47C122.14 148.47 120.06 148.47 119.64 148.47C119.64 148.47 119.64 148.47 119.64 148.47C119.64 135.9 119.64 128.91 119.64 127.51C119.64 127.51 119.64 127.51 119.64 127.51Z" id="hlPtQXLTQ"></path><path d="M73.85 52.57C77.59 52.57 79.68 52.57 80.09 52.57C80.09 52.57 80.09 52.57 80.09 52.57C80.09 65.14 80.09 72.13 80.09 73.53C80.09 73.53 80.09 73.53 80.09 73.53C76.35 73.53 74.26 73.53 73.85 73.53C73.85 73.53 73.85 73.53 73.85 73.53C73.85 60.95 73.85 53.96 73.85 52.57C73.85 52.57 73.85 52.57 73.85 52.57Z" id="a1XzvHW3h1"></path><path d="M73.85 52.57C77.59 52.57 79.68 52.57 80.09 52.57C80.09 52.57 80.09 52.57 80.09 52.57C80.09 65.14 80.09 72.13 80.09 73.53C80.09 73.53 80.09 73.53 80.09 73.53C76.35 73.53 74.26 73.53 73.85 73.53C73.85 73.53 73.85 73.53 73.85 73.53C73.85 60.95 73.85 53.96 73.85 52.57C73.85 52.57 73.85 52.57 73.85 52.57Z" id="bbR7EDZBj"></path><path d="M31.82 91.01C34.91 91.01 36.63 91.01 36.97 91.01C36.97 91.01 36.97 91.01 36.97 91.01C36.97 103.59 36.97 110.58 36.97 111.98C36.97 111.98 36.97 111.98 36.97 111.98C33.88 111.98 32.17 111.98 31.82 111.98C31.82 111.98 31.82 111.98 31.82 111.98C31.82 99.4 31.82 92.41 31.82 91.01C31.82 91.01 31.82 91.01 31.82 91.01Z" id="a2NWsH8Oky"></path><path d="M31.82 91.01C34.91 91.01 36.63 91.01 36.97 91.01C36.97 91.01 36.97 91.01 36.97 91.01C36.97 103.59 36.97 110.58 36.97 111.98C36.97 111.98 36.97 111.98 36.97 111.98C33.88 111.98 32.17 111.98 31.82 111.98C31.82 111.98 31.82 111.98 31.82 111.98C31.82 99.4 31.82 92.41 31.82 91.01C31.82 91.01 31.82 91.01 31.82 91.01Z" id="bL15J6ZV5"></path><path d="M162.85 87.92C165.94 87.92 167.66 87.92 168 87.92C168 87.92 168 87.92 168 87.92C168 100.49 168 107.48 168 108.88C168 108.88 168 108.88 168 108.88C164.91 108.88 163.2 108.88 162.85 108.88C162.85 108.88 162.85 108.88 162.85 108.88C162.85 96.3 162.85 89.31 162.85 87.92C162.85 87.92 162.85 87.92 162.85 87.92Z" id="fASH8XgwQ"></path><path d="M162.85 87.92C165.94 87.92 167.66 87.92 168 87.92C168 87.92 168 87.92 168 87.92C168 100.49 168 107.48 168 108.88C168 108.88 168 108.88 168 108.88C164.91 108.88 163.2 108.88 162.85 108.88C162.85 108.88 162.85 108.88 162.85 108.88C162.85 96.3 162.85 89.31 162.85 87.92C162.85 87.92 162.85 87.92 162.85 87.92Z" id="e1pGL0GiZ"></path><path d="M72.12 123.37C72.12 129.66 77.21 134.75 83.5 134.75C89.78 134.75 94.88 129.66 94.88 123.37C94.88 117.09 89.78 111.99 83.5 111.99C77.21 111.99 72.12 117.09 72.12 123.37Z" id="adBtU86VE"></path><path d="M72.12 123.37C72.12 129.66 77.21 134.75 83.5 134.75C89.78 134.75 94.88 129.66 94.88 123.37C94.88 117.09 89.78 111.99 83.5 111.99C77.21 111.99 72.12 117.09 72.12 123.37Z" id="cqftODmAT"></path></defs><g><g><g><use xlink:href="#d4SFZa8sz" opacity="1" fill="#000000" fill-opacity="0"></use><g><use xlink:href="#d4SFZa8sz" opacity="1" fill-opacity="0" stroke="#000000" strokeWidth="1" stroke-opacity="0"></use></g></g><g><use xlink:href="#d2ypTfi67U" opacity="1" fill="#000000" fill-opacity="0"></use><g><use xlink:href="#d2ypTfi67U" opacity="1" fill-opacity="0" stroke="#6c63ff" strokeWidth="4" stroke-opacity="1"></use></g></g><g><use xlink:href="#eV6SlkTFH" opacity="1" fill="#000000" fill-opacity="0"></use><g><use xlink:href="#eV6SlkTFH" opacity="1" fill-opacity="0" stroke="#000000" strokeWidth="1" stroke-opacity="0"></use></g></g><g><use xlink:href="#aldIeDCeN" opacity="1" fill="#000000" fill-opacity="0"></use><g><use xlink:href="#aldIeDCeN" opacity="1" fill-opacity="0" stroke="#6c63ff" strokeWidth="4" stroke-opacity="1"></use></g></g><g><use xlink:href="#e7te4UsKr" opacity="1" fill="#000000" fill-opacity="0"></use><g><use xlink:href="#e7te4UsKr" opacity="1" fill-opacity="0" stroke="#000000" strokeWidth="1" stroke-opacity="0"></use></g></g><g><use xlink:href="#a4ZMxrUbgS" opacity="1" fill="#000000" fill-opacity="0"></use><g><use xlink:href="#a4ZMxrUbgS" opacity="1" fill-opacity="0" stroke="#6c63ff" strokeWidth="4" stroke-opacity="1"></use></g></g><g><use xlink:href="#l1anpw4O8a" opacity="1" fill="#000000" fill-opacity="0"></use><g><use xlink:href="#l1anpw4O8a" opacity="1" fill-opacity="0" stroke="#000000" strokeWidth="1" stroke-opacity="0"></use></g></g><g><use xlink:href="#d52ayhLCTh" opacity="1" fill="#000000" fill-opacity="0"></use><g><use xlink:href="#d52ayhLCTh" opacity="1" fill-opacity="0" stroke="#6c63ff" strokeWidth="4" stroke-opacity="1"></use></g></g><g><use xlink:href="#eJD0nV1bt" opacity="1" fill="#000000" fill-opacity="0"></use><g><use xlink:href="#eJD0nV1bt" opacity="1" fill-opacity="0" stroke="#000000" strokeWidth="1" stroke-opacity="0"></use></g></g><g><use xlink:href="#b9UVaisqQ4" opacity="1" fill="#000000" fill-opacity="0"></use><g><use xlink:href="#b9UVaisqQ4" opacity="1" fill-opacity="0" stroke="#34127a" strokeWidth="3" stroke-opacity="1"></use></g></g><g><use xlink:href="#d28GlMbUdR" opacity="1" fill="#000000" fill-opacity="0"></use><g><use xlink:href="#d28GlMbUdR" opacity="1" fill-opacity="0" stroke="#000000" strokeWidth="1" stroke-opacity="0"></use></g></g><g><use xlink:href="#gcbMMdDlY" opacity="1" fill="#000000" fill-opacity="0"></use><g><use xlink:href="#gcbMMdDlY" opacity="1" fill-opacity="0" stroke="#34127a" strokeWidth="5" stroke-opacity="1"></use></g></g><g><use xlink:href="#bcsoHH9kK" opacity="1" fill="#000000" fill-opacity="0"></use><g><use xlink:href="#bcsoHH9kK" opacity="1" fill-opacity="0" stroke="#000000" strokeWidth="1" stroke-opacity="0"></use></g></g><g><use xlink:href="#eaBn7Juvz" opacity="1" fill="#000000" fill-opacity="0"></use><g><use xlink:href="#eaBn7Juvz" opacity="1" fill-opacity="0" stroke="#3d2578" strokeWidth="5" stroke-opacity="1"></use></g></g><g><use xlink:href="#a169bRBBbz" opacity="1" fill="#000000" fill-opacity="0"></use><g><use xlink:href="#a169bRBBbz" opacity="1" fill-opacity="0" stroke="#000000" strokeWidth="1" stroke-opacity="0"></use></g></g><g><use xlink:href="#a1WaXDkRGS" opacity="1" fill="#000000" fill-opacity="0"></use><g><use xlink:href="#a1WaXDkRGS" opacity="1" fill-opacity="0" stroke="#3d2578" strokeWidth="5" stroke-opacity="1"></use></g></g><g><use xlink:href="#b5KmNijRBR" opacity="1" fill="#000000" fill-opacity="0"></use><g><use xlink:href="#b5KmNijRBR" opacity="1" fill-opacity="0" stroke="#000000" strokeWidth="1" stroke-opacity="0"></use></g></g><g><use xlink:href="#a224n5Sb2" opacity="1" fill="#000000" fill-opacity="0"></use><g><use xlink:href="#a224n5Sb2" opacity="1" fill-opacity="0" stroke="#6c63ff" strokeWidth="2" stroke-opacity="1"></use></g></g><g><use xlink:href="#d7KGXebaGS" opacity="1" fill="#000000" fill-opacity="0"></use><g><use xlink:href="#d7KGXebaGS" opacity="1" fill-opacity="0" stroke="#000000" strokeWidth="1" stroke-opacity="0"></use></g></g><g><use xlink:href="#d4eGBa7Pc4" opacity="1" fill="#000000" fill-opacity="0"></use><g><use xlink:href="#d4eGBa7Pc4" opacity="1" fill-opacity="0" stroke="#6c63ff" strokeWidth="2" stroke-opacity="1"></use></g></g><g><use xlink:href="#av9V21YeG" opacity="1" fill="#000000" fill-opacity="0"></use><g><use xlink:href="#av9V21YeG" opacity="1" fill-opacity="0" stroke="#000000" strokeWidth="1" stroke-opacity="0"></use></g></g><g><use xlink:href="#f41PcyrJCM" opacity="1" fill="#000000" fill-opacity="0"></use><g><use xlink:href="#f41PcyrJCM" opacity="1" fill-opacity="0" stroke="#6c63ff" strokeWidth="2" stroke-opacity="1"></use></g></g><g><use xlink:href="#bl5rtarMQ" opacity="1" fill="#000000" fill-opacity="0"></use><g><use xlink:href="#bl5rtarMQ" opacity="1" fill-opacity="0" stroke="#000000" strokeWidth="1" stroke-opacity="0"></use></g></g><g><use xlink:href="#c41tcBuNX" opacity="1" fill="#000000" fill-opacity="0"></use><g><use xlink:href="#c41tcBuNX" opacity="1" fill-opacity="0" stroke="#34127a" strokeWidth="3" stroke-opacity="1"></use></g></g><g><use xlink:href="#e1x8hwZvO3" opacity="1" fill="#000000" fill-opacity="0"></use><g><use xlink:href="#e1x8hwZvO3" opacity="1" fill-opacity="0" stroke="#000000" strokeWidth="1" stroke-opacity="0"></use></g></g><g><use xlink:href="#c6vnWdn4OJ" opacity="1" fill="#000000" fill-opacity="0"></use><g><use xlink:href="#c6vnWdn4OJ" opacity="1" fill-opacity="0" stroke="#6c63ff" strokeWidth="2" stroke-opacity="1"></use></g></g><g><use xlink:href="#jsmqk6WXR" opacity="1" fill="#000000" fill-opacity="0"></use><g><use xlink:href="#jsmqk6WXR" opacity="1" fill-opacity="0" stroke="#000000" strokeWidth="1" stroke-opacity="0"></use></g></g><g><use xlink:href="#cgtP2efUF" opacity="1" fill="#000000" fill-opacity="0"></use><g><use xlink:href="#cgtP2efUF" opacity="1" fill-opacity="0" stroke="#000000" strokeWidth="1" stroke-opacity="0"></use></g></g><g><use xlink:href="#b2DcPqYbXV" opacity="1" fill="#000000" fill-opacity="0"></use><g><use xlink:href="#b2DcPqYbXV" opacity="1" fill-opacity="0" stroke="#000000" strokeWidth="1" stroke-opacity="0"></use></g></g><g><use xlink:href="#a1E57i3gIT" opacity="1" fill="#000000" fill-opacity="0"></use><g><use xlink:href="#a1E57i3gIT" opacity="1" fill-opacity="0" stroke="#3d2578" strokeWidth="3" stroke-opacity="1"></use></g></g><g><use xlink:href="#b1EuMZc17V" opacity="1" fill="#000000" fill-opacity="0"></use><g><use xlink:href="#b1EuMZc17V" opacity="1" fill-opacity="0" stroke="#000000" strokeWidth="1" stroke-opacity="0"></use></g></g><g><use xlink:href="#c2Iy5YbrkZ" opacity="1" fill="#000000" fill-opacity="0"></use><g><use xlink:href="#c2Iy5YbrkZ" opacity="1" fill-opacity="0" stroke="#3d2578" strokeWidth="3" stroke-opacity="1"></use></g></g><g><use xlink:href="#bP9XMuPOP" opacity="1" fill="#6c63ff" fill-opacity="1"></use><g><use xlink:href="#bP9XMuPOP" opacity="1" fill-opacity="0" stroke="#000000" strokeWidth="1" stroke-opacity="0"></use></g></g><g><use xlink:href="#cngERAMnj" opacity="1" fill="#000000" fill-opacity="0"></use><g><use xlink:href="#cngERAMnj" opacity="1" fill-opacity="0" stroke="#000000" strokeWidth="1" stroke-opacity="0"></use></g></g><g><use xlink:href="#aAD7nfSRz" opacity="1" fill="#34127a" fill-opacity="1"></use><g><use xlink:href="#aAD7nfSRz" opacity="1" fill-opacity="0" stroke="#000000" strokeWidth="1" stroke-opacity="0"></use></g></g><g><use xlink:href="#chUgoTuNU" opacity="1" fill="#000000" fill-opacity="0"></use><g><use xlink:href="#chUgoTuNU" opacity="1" fill-opacity="0" stroke="#000000" strokeWidth="1" stroke-opacity="0"></use></g></g><g><use xlink:href="#b8Z6uJpfpa" opacity="1" fill="#6c63ff" fill-opacity="1"></use><g><use xlink:href="#b8Z6uJpfpa" opacity="1" fill-opacity="0" stroke="#000000" strokeWidth="1" stroke-opacity="0"></use></g></g><g><use xlink:href="#buZ7oe3Ls" opacity="1" fill="#000000" fill-opacity="0"></use><g><use xlink:href="#buZ7oe3Ls" opacity="1" fill-opacity="0" stroke="#000000" strokeWidth="1" stroke-opacity="0"></use></g></g><g><use xlink:href="#aG8fpb0Zk" opacity="1" fill="#34127a" fill-opacity="1"></use><g><use xlink:href="#aG8fpb0Zk" opacity="1" fill-opacity="0" stroke="#000000" strokeWidth="1" stroke-opacity="0"></use></g></g><g><use xlink:href="#b2fV7LDuRw" opacity="1" fill="#000000" fill-opacity="0"></use><g><use xlink:href="#b2fV7LDuRw" opacity="1" fill-opacity="0" stroke="#000000" strokeWidth="1" stroke-opacity="0"></use></g></g><g><use xlink:href="#bbtJDUx3" opacity="1" fill="#3d2578" fill-opacity="1"></use><g><use xlink:href="#bbtJDUx3" opacity="1" fill-opacity="0" stroke="#000000" strokeWidth="1" stroke-opacity="0"></use></g></g><g><use xlink:href="#hlPtQXLTQ" opacity="1" fill="#000000" fill-opacity="0"></use><g><use xlink:href="#hlPtQXLTQ" opacity="1" fill-opacity="0" stroke="#000000" strokeWidth="1" stroke-opacity="0"></use></g></g><g><use xlink:href="#a1XzvHW3h1" opacity="1" fill="#3d2578" fill-opacity="1"></use><g><use xlink:href="#a1XzvHW3h1" opacity="1" fill-opacity="0" stroke="#000000" strokeWidth="1" stroke-opacity="0"></use></g></g><g><use xlink:href="#bbR7EDZBj" opacity="1" fill="#000000" fill-opacity="0"></use><g><use xlink:href="#bbR7EDZBj" opacity="1" fill-opacity="0" stroke="#000000" strokeWidth="1" stroke-opacity="0"></use></g></g><g><use xlink:href="#a2NWsH8Oky" opacity="1" fill="#6c63ff" fill-opacity="1"></use><g><use xlink:href="#a2NWsH8Oky" opacity="1" fill-opacity="0" stroke="#000000" strokeWidth="1" stroke-opacity="0"></use></g></g><g><use xlink:href="#bL15J6ZV5" opacity="1" fill="#000000" fill-opacity="0"></use><g><use xlink:href="#bL15J6ZV5" opacity="1" fill-opacity="0" stroke="#000000" strokeWidth="1" stroke-opacity="0"></use></g></g><g><use xlink:href="#fASH8XgwQ" opacity="1" fill="#6c63ff" fill-opacity="1"></use><g><use xlink:href="#fASH8XgwQ" opacity="1" fill-opacity="0" stroke="#000000" strokeWidth="1" stroke-opacity="0"></use></g></g><g><use xlink:href="#e1pGL0GiZ" opacity="1" fill="#000000" fill-opacity="0"></use><g><use xlink:href="#e1pGL0GiZ" opacity="1" fill-opacity="0" stroke="#000000" strokeWidth="1" stroke-opacity="0"></use></g></g><g><use xlink:href="#adBtU86VE" opacity="1" fill="#000000" fill-opacity="0"></use><g><use xlink:href="#adBtU86VE" opacity="1" fill-opacity="0" stroke="#000000" strokeWidth="1" stroke-opacity="0"></use></g></g><g><use xlink:href="#cqftODmAT" opacity="1" fill="#000000" fill-opacity="0"></use><g><use xlink:href="#cqftODmAT" opacity="1" fill-opacity="0" stroke="#34127a" strokeWidth="5" stroke-opacity="1"></use></g></g></g></g></svg>