<?xml version="1.0" encoding="UTF-8" standalone="no"?>
<!DOCTYPE svg PUBLIC "-//W3C//DTD SVG 1.1//EN" "http://www.w3.org/Graphics/SVG/1.1/DTD/svg11.dtd">
<svg version="1.1" xmlns="http://www.w3.org/2000/svg" xmlns:xlink="http://www.w3.org/1999/xlink" preserveAspectRatio="xMidYMid meet" viewBox="0 0 200 200" width="200" height="200"><defs><path d="M108.92 34.81C108.92 44.5 116.78 52.36 126.48 52.36C136.18 52.36 144.04 44.5 144.04 34.81C144.04 25.11 136.18 17.25 126.48 17.25C116.78 17.25 108.92 25.11 108.92 34.81Z" id="d4SFZa8sz"></path><path d="M108.92 34.81C108.92 44.5 116.78 52.36 126.48 52.36C136.18 52.36 144.04 44.5 144.04 34.81C144.04 25.11 136.18 17.25 126.48 17.25C116.78 17.25 108.92 25.11 108.92 34.81Z" id="h7S4eSdh0"></path><path d="M147.46 126.4C147.46 136.08 155.3 143.92 164.98 143.92C174.66 143.92 182.5 136.08 182.5 126.4C182.5 116.72 174.66 108.88 164.98 108.88C155.3 108.88 147.46 116.72 147.46 126.4Z" id="eV6SlkTFH"></path><path d="M147.46 126.4C147.46 136.08 155.3 143.92 164.98 143.92C174.66 143.92 182.5 136.08 182.5 126.4C182.5 116.72 174.66 108.88 164.98 108.88C155.3 108.88 147.46 116.72 147.46 126.4Z" id="aAh0Xcm8P"></path><path d="M55.5 165.99C55.5 175.67 63.35 183.52 73.03 183.52C82.7 183.52 90.55 175.67 90.55 165.99C90.55 156.32 82.7 148.47 73.03 148.47C63.35 148.47 55.5 156.32 55.5 165.99Z" id="e7te4UsKr"></path><path d="M55.5 165.99C55.5 175.67 63.35 183.52 73.03 183.52C82.7 183.52 90.55 175.67 90.55 165.99C90.55 156.32 82.7 148.47 73.03 148.47C63.35 148.47 55.5 156.32 55.5 165.99Z" id="biP2K286x"></path><path d="M16.9 74.04C16.9 83.72 24.75 91.56 34.42 91.56C44.1 91.56 51.95 83.72 51.95 74.04C51.95 64.36 44.1 56.52 34.42 56.52C24.75 56.52 16.9 64.36 16.9 74.04Z" id="l1anpw4O8a"></path><path d="M16.9 74.04C16.9 83.72 24.75 91.56 34.42 91.56C44.1 91.56 51.95 83.72 51.95 74.04C51.95 64.36 44.1 56.52 34.42 56.52C24.75 56.52 16.9 64.36 16.9 74.04Z" id="a1pzP0j3iC"></path><path d="M27.17 106.26C17.95 110.42 13.85 121.26 18.01 130.48C21.11 137.33 28.08 141.6 35.59 141.24C45.67 140.47 53.23 131.68 52.47 121.6C51.96 114.91 47.84 109.03 41.71 106.28" id="eJD0nV1bt"></path><path d="M27.17 106.26C17.95 110.42 13.85 121.26 18.01 130.48C21.11 137.33 28.08 141.6 35.59 141.24C45.67 140.47 53.23 131.68 52.47 121.6C51.96 114.91 47.84 109.03 41.71 106.28" id="c1k02uZ8e5"></path><path d="M104.01 77.22C104.01 83.51 109.11 88.6 115.39 88.6C121.68 88.6 126.77 83.51 126.77 77.22C126.77 70.94 121.68 65.84 115.39 65.84C109.11 65.84 104.01 70.94 104.01 77.22Z" id="d28GlMbUdR"></path><path d="M104.01 77.22C104.01 83.51 109.11 88.6 115.39 88.6C121.68 88.6 126.77 83.51 126.77 77.22C126.77 70.94 121.68 65.84 115.39 65.84C109.11 65.84 104.01 70.94 104.01 77.22Z" id="k940X7QDM"></path><path d="M65.24 84.34C65.24 90.63 70.34 95.72 76.62 95.72C82.9 95.72 88 90.63 88 84.34C88 78.06 82.9 72.96 76.62 72.96C70.34 72.96 65.24 78.06 65.24 84.34Z" id="bcsoHH9kK"></path><path d="M64.74 84.34C64.74 90.63 69.84 95.72 76.12 95.72C82.4 95.72 87.5 90.63 87.5 84.34C87.5 78.06 82.4 72.96 76.12 72.96C69.84 72.96 64.74 78.06 64.74 84.34Z" id="ccMJtANT8"></path><path d="M111.42 115.68C110.97 121.94 115.68 127.39 121.95 127.84C128.22 128.29 133.67 123.58 134.12 117.31C134.57 111.04 129.85 105.59 123.59 105.14C117.32 104.69 111.87 109.41 111.42 115.68Z" id="a169bRBBbz"></path><path d="M105.69 171.93C109.13 181.3 119.52 186.1 128.88 182.66C138.25 179.22 143.05 168.83 139.61 159.47C136.17 150.1 125.79 145.3 116.42 148.74C112.16 150.3 108.65 153.41 106.58 157.44" id="eq14vxZSZ"></path><path d="M154.34 76.98C154.34 83.27 159.43 88.36 165.72 88.36C172 88.36 177.09 83.27 177.09 76.98C177.09 70.7 172 65.6 165.72 65.6C159.43 65.6 154.34 70.7 154.34 76.98Z" id="b5KmNijRBR"></path><path d="M110.65 165.58C110.65 171.87 115.75 176.96 122.03 176.96C128.32 176.96 133.41 171.87 133.41 165.58C133.41 159.3 128.32 154.21 122.03 154.21C115.75 154.21 110.65 159.3 110.65 165.58Z" id="d7KGXebaGS"></path><path d="M154.34 76.98C154.34 83.27 159.43 88.36 165.72 88.36C172 88.36 177.09 83.27 177.09 76.98C177.09 70.7 172 65.6 165.72 65.6C159.43 65.6 154.34 70.7 154.34 76.98Z" id="aGPkqwcfK"></path><path d="M111.47 163.65C111.47 166.74 111.47 168.45 111.47 168.8C111.47 168.8 111.47 168.8 111.47 168.8C98.9 168.8 91.91 168.8 90.51 168.8C90.51 168.8 90.51 168.8 90.51 168.8C90.51 165.71 90.51 163.99 90.51 163.65C90.51 163.65 90.51 163.65 90.51 163.65C103.09 163.65 110.08 163.65 111.47 163.65C111.47 163.65 111.47 163.65 111.47 163.65Z" id="c1iDFMIXl"></path><clipPath id="clipb44n7PySox"><use xlink:href="#c1iDFMIXl" opacity="1"></use></clipPath><path d="M172.97 94.57C182.15 90.66 186.42 80.05 182.51 70.87C178.6 61.69 167.99 57.41 158.81 61.32C149.63 65.23 145.36 75.85 149.26 85.03C151.04 89.2 154.32 92.55 158.46 94.42" id="a27eamQ8gg"></path><path d="M22.77 122.64C22.77 128.92 27.87 134.01 34.15 134.01C40.43 134.01 45.53 128.92 45.53 122.64C45.53 116.35 40.43 111.26 34.15 111.26C27.87 111.26 22.77 116.35 22.77 122.64Z" id="av9V21YeG"></path><path d="M22.77 122.64C22.77 128.92 27.87 134.01 34.15 134.01C40.43 134.01 45.53 128.92 45.53 122.64C45.53 116.35 40.43 111.26 34.15 111.26C27.87 111.26 22.77 116.35 22.77 122.64Z" id="c1vfexG4fq"></path><path d="M65.96 34.24C65.96 40.52 71.05 45.62 77.34 45.62C83.62 45.62 88.72 40.52 88.72 34.24C88.72 27.96 83.62 22.86 77.34 22.86C71.05 22.86 65.96 27.96 65.96 34.24Z" id="e1x8hwZvO3"></path><path d="M94.88 28.37C91.48 18.85 81 13.89 71.48 17.29C64.41 19.81 59.6 26.4 59.34 33.9C59.3 44.01 67.47 52.23 77.59 52.27C84.26 52.29 90.43 48.67 93.66 42.83" id="i4Z5w5iaAS"></path><path d="M65.96 34.24C65.96 40.52 71.05 45.62 77.34 45.62C83.62 45.62 88.72 40.52 88.72 34.24C88.72 27.96 83.62 22.86 77.34 22.86C71.05 22.86 65.96 27.96 65.96 34.24Z" id="bUpidOOUp"></path><path d="M42.26 102.43C42.26 105.96 42.26 107.92 42.26 108.31C42.26 108.31 42.26 108.31 42.26 108.31C33.58 108.31 28.75 108.31 27.78 108.31C27.78 108.31 27.78 108.31 27.78 108.31C27.78 104.78 27.78 102.82 27.78 102.43C27.78 102.43 27.78 102.43 27.78 102.43C36.47 102.43 41.3 102.43 42.26 102.43C42.26 102.43 42.26 102.43 42.26 102.43Z" id="jsmqk6WXR"></path><path d="M42.26 102.43C42.26 105.96 42.26 107.92 42.26 108.31C42.26 108.31 42.26 108.31 42.26 108.31C33.58 108.31 28.75 108.31 27.78 108.31C27.78 108.31 27.78 108.31 27.78 108.31C27.78 104.78 27.78 102.82 27.78 102.43C27.78 102.43 27.78 102.43 27.78 102.43C36.47 102.43 41.3 102.43 42.26 102.43C42.26 102.43 42.26 102.43 42.26 102.43Z" id="cgtP2efUF"></path><path d="M108.46 32.35C108.46 35.44 108.46 37.16 108.46 37.5C108.46 37.5 108.46 37.5 108.46 37.5C95.88 37.5 88.89 37.5 87.5 37.5C87.5 37.5 87.5 37.5 87.5 37.5C87.5 34.41 87.5 32.7 87.5 32.35C87.5 32.35 87.5 32.35 87.5 32.35C100.07 32.35 107.06 32.35 108.46 32.35C108.46 32.35 108.46 32.35 108.46 32.35Z" id="e8VTTboCu"></path><clipPath id="clipcc0zTR4Ft"><use xlink:href="#e8VTTboCu" opacity="1"></use></clipPath><path d="M111.42 115.68C110.97 121.94 115.68 127.39 121.95 127.84C128.22 128.29 133.67 123.58 134.12 117.31C134.57 111.04 129.85 105.59 123.59 105.14C117.32 104.69 111.87 109.41 111.42 115.68Z" id="a58Xnw16aZ"></path><path d="M72.87 120.19C72.87 123.28 72.87 125 72.87 125.34C72.87 125.34 72.87 125.34 72.87 125.34C60.3 125.34 53.31 125.34 51.91 125.34C51.91 125.34 51.91 125.34 51.91 125.34C51.91 122.25 51.91 120.53 51.91 120.19C51.91 120.19 51.91 120.19 51.91 120.19C64.49 120.19 71.47 120.19 72.87 120.19C72.87 120.19 72.87 120.19 72.87 120.19Z" id="a1jpgepPUz"></path><clipPath id="clipcrx8csdD9"><use xlink:href="#a1jpgepPUz" opacity="1"></use></clipPath><path d="M147.99 75C147.99 78.09 147.99 79.81 147.99 80.15C147.99 80.15 147.99 80.15 147.99 80.15C135.41 80.15 128.42 80.15 127.02 80.15C127.02 80.15 127.02 80.15 127.02 80.15C127.02 77.06 127.02 75.34 127.02 75C127.02 75 127.02 75 127.02 75C139.6 75 146.59 75 147.99 75C147.99 75 147.99 75 147.99 75Z" id="h4nmSQPxg"></path><clipPath id="clipbd0lMlelE"><use xlink:href="#h4nmSQPxg" opacity="1"></use></clipPath><path d="M31.82 91.01C34.91 91.01 36.63 91.01 36.97 91.01C36.97 91.01 36.97 91.01 36.97 91.01C36.97 103.59 36.97 110.58 36.97 111.98C36.97 111.98 36.97 111.98 36.97 111.98C33.88 111.98 32.17 111.98 31.82 111.98C31.82 111.98 31.82 111.98 31.82 111.98C31.82 99.4 31.82 92.41 31.82 91.01C31.82 91.01 31.82 91.01 31.82 91.01Z" id="a2NWsH8Oky"></path><path d="M119.64 127.02C123.39 127.02 125.47 127.02 125.89 127.02C125.89 127.02 125.89 127.02 125.89 127.02C125.89 139.6 125.89 146.59 125.89 147.98C125.89 147.98 125.89 147.98 125.89 147.98C122.14 147.98 120.06 147.98 119.64 147.98C119.64 147.98 119.64 147.98 119.64 147.98C119.64 135.41 119.64 128.42 119.64 127.02C119.64 127.02 119.64 127.02 119.64 127.02Z" id="a2w7lwbks"></path><clipPath id="clipb72QI6F0"><use xlink:href="#a2w7lwbks" opacity="1"></use></clipPath><path d="M162.5 87.5C165.59 87.5 167.31 87.5 167.65 87.5C167.65 87.5 167.65 87.5 167.65 87.5C167.65 100.07 167.65 107.06 167.65 108.46C167.65 108.46 167.65 108.46 167.65 108.46C164.56 108.46 162.85 108.46 162.5 108.46C162.5 108.46 162.5 108.46 162.5 108.46C162.5 95.88 162.5 88.89 162.5 87.5C162.5 87.5 162.5 87.5 162.5 87.5Z" id="asyXewEHy"></path><clipPath id="clipaXuleTDbT"><use xlink:href="#asyXewEHy" opacity="1"></use></clipPath><path d="M110.65 165.58C110.65 171.87 115.75 176.96 122.03 176.96C128.32 176.96 133.41 171.87 133.41 165.58C133.41 159.3 128.32 154.21 122.03 154.21C115.75 154.21 110.65 159.3 110.65 165.58Z" id="d3bBfSfiL"></path><path d="M74.19 52.02C77.93 52.02 80.02 52.02 80.43 52.02C80.43 52.02 80.43 52.02 80.43 52.02C80.43 64.59 80.43 71.58 80.43 72.98C80.43 72.98 80.43 72.98 80.43 72.98C76.69 72.98 74.6 72.98 74.19 72.98C74.19 72.98 74.19 72.98 74.19 72.98C74.19 60.4 74.19 53.41 74.19 52.02C74.19 52.02 74.19 52.02 74.19 52.02Z" id="bIk3yPGQZ"></path><clipPath id="clipc2KsHV7WJD"><use xlink:href="#bIk3yPGQZ" opacity="1"></use></clipPath><path d="M162.5 87.5C165.59 87.5 167.31 87.5 167.65 87.5C167.65 87.5 167.65 87.5 167.65 87.5C167.65 100.07 167.65 107.06 167.65 108.46C167.65 108.46 167.65 108.46 167.65 108.46C164.56 108.46 162.85 108.46 162.5 108.46C162.5 108.46 162.5 108.46 162.5 108.46C162.5 95.88 162.5 88.89 162.5 87.5C162.5 87.5 162.5 87.5 162.5 87.5Z" id="g17Zl18Att"></path><clipPath id="clipf1NzQUFA9H"><use xlink:href="#g17Zl18Att" opacity="1"></use></clipPath><path d="M72.12 123.37C72.12 129.66 77.21 134.75 83.5 134.75C89.78 134.75 94.88 129.66 94.88 123.37C94.88 117.09 89.78 111.99 83.5 111.99C77.21 111.99 72.12 117.09 72.12 123.37Z" id="adBtU86VE"></path><path d="M72.12 123.37C72.12 129.66 77.21 134.75 83.5 134.75C89.78 134.75 94.88 129.66 94.88 123.37C94.88 117.09 89.78 111.99 83.5 111.99C77.21 111.99 72.12 117.09 72.12 123.37Z" id="c238JZzYjl"></path><path d="M31.82 91.01C34.91 91.01 36.63 91.01 36.97 91.01C36.97 91.01 36.97 91.01 36.97 91.01C36.97 103.59 36.97 110.58 36.97 111.98C36.97 111.98 36.97 111.98 36.97 111.98C33.88 111.98 32.17 111.98 31.82 111.98C31.82 111.98 31.82 111.98 31.82 111.98C31.82 99.4 31.82 92.41 31.82 91.01C31.82 91.01 31.82 91.01 31.82 91.01Z" id="bgqIetq4O"></path><clipPath id="clipbBnqWMDRu"><use xlink:href="#bgqIetq4O" opacity="1"></use></clipPath></defs><g><g><g><use xlink:href="#d4SFZa8sz" opacity="1" fill="#000000" fill-opacity="0"></use><g><use xlink:href="#d4SFZa8sz" opacity="1" fill-opacity="0" stroke="#000000" stroke-width="1" stroke-opacity="0"></use></g></g><g><use xlink:href="#h7S4eSdh0" opacity="1" fill="#000000" fill-opacity="0"></use><g><use xlink:href="#h7S4eSdh0" opacity="1" fill-opacity="0" stroke="#ff8e00" stroke-width="4" stroke-opacity="1"></use></g></g><g><use xlink:href="#eV6SlkTFH" opacity="1" fill="#000000" fill-opacity="0"></use><g><use xlink:href="#eV6SlkTFH" opacity="1" fill-opacity="0" stroke="#000000" stroke-width="1" stroke-opacity="0"></use></g></g><g><use xlink:href="#aAh0Xcm8P" opacity="1" fill="#000000" fill-opacity="0"></use><g><use xlink:href="#aAh0Xcm8P" opacity="1" fill-opacity="0" stroke="#ff69b4" stroke-width="4" stroke-opacity="1"></use></g></g><g><use xlink:href="#e7te4UsKr" opacity="1" fill="#000000" fill-opacity="0"></use><g><use xlink:href="#e7te4UsKr" opacity="1" fill-opacity="0" stroke="#000000" stroke-width="1" stroke-opacity="0"></use></g></g><g><use xlink:href="#biP2K286x" opacity="1" fill="#000000" fill-opacity="0"></use><g><use xlink:href="#biP2K286x" opacity="1" fill-opacity="0" stroke="#0000f9" stroke-width="4" stroke-opacity="1"></use></g></g><g><use xlink:href="#l1anpw4O8a" opacity="1" fill="#000000" fill-opacity="0"></use><g><use xlink:href="#l1anpw4O8a" opacity="1" fill-opacity="0" stroke="#000000" stroke-width="1" stroke-opacity="0"></use></g></g><g><use xlink:href="#a1pzP0j3iC" opacity="1" fill="#000000" fill-opacity="0"></use><g><use xlink:href="#a1pzP0j3iC" opacity="1" fill-opacity="0" stroke="#008018" stroke-width="4" stroke-opacity="1"></use></g></g><g><use xlink:href="#eJD0nV1bt" opacity="1" fill="#000000" fill-opacity="0"></use><g><use xlink:href="#eJD0nV1bt" opacity="1" fill-opacity="0" stroke="#000000" stroke-width="1" stroke-opacity="0"></use></g></g><g><use xlink:href="#c1k02uZ8e5" opacity="1" fill="#000000" fill-opacity="0"></use><g><use xlink:href="#c1k02uZ8e5" opacity="1" fill-opacity="0" stroke="#00c0c0" stroke-width="3" stroke-opacity="1"></use></g></g><g><use xlink:href="#d28GlMbUdR" opacity="1" fill="#000000" fill-opacity="0"></use><g><use xlink:href="#d28GlMbUdR" opacity="1" fill-opacity="0" stroke="#000000" stroke-width="1" stroke-opacity="0"></use></g></g><g><use xlink:href="#k940X7QDM" opacity="1" fill="#000000" fill-opacity="0"></use><g><use xlink:href="#k940X7QDM" opacity="1" fill-opacity="0" stroke="#ff0000" stroke-width="5" stroke-opacity="1"></use></g></g><g><use xlink:href="#bcsoHH9kK" opacity="1" fill="#000000" fill-opacity="0"></use><g><use xlink:href="#bcsoHH9kK" opacity="1" fill-opacity="0" stroke="#000000" stroke-width="1" stroke-opacity="0"></use></g></g><g><use xlink:href="#ccMJtANT8" opacity="1" fill="#000000" fill-opacity="0"></use><g><use xlink:href="#ccMJtANT8" opacity="1" fill-opacity="0" stroke="#ffff41" stroke-width="5" stroke-opacity="1"></use></g></g><g><use xlink:href="#a169bRBBbz" opacity="1" fill="#000000" fill-opacity="0"></use><g><use xlink:href="#a169bRBBbz" opacity="1" fill-opacity="0" stroke="#000000" stroke-width="1" stroke-opacity="0"></use></g></g><g><use xlink:href="#eq14vxZSZ" opacity="1" fill="#000000" fill-opacity="0"></use><g><use xlink:href="#eq14vxZSZ" opacity="1" fill-opacity="0" stroke="#8e008e" stroke-width="3" stroke-opacity="1"></use></g></g><g><use xlink:href="#b5KmNijRBR" opacity="1" fill="#000000" fill-opacity="0"></use><g><use xlink:href="#b5KmNijRBR" opacity="1" fill-opacity="0" stroke="#000000" stroke-width="1" stroke-opacity="0"></use></g></g><g><use xlink:href="#d7KGXebaGS" opacity="1" fill="#000000" fill-opacity="0"></use><g><use xlink:href="#d7KGXebaGS" opacity="1" fill-opacity="0" stroke="#000000" stroke-width="1" stroke-opacity="0"></use></g></g><g><use xlink:href="#aGPkqwcfK" opacity="1" fill="#000000" fill-opacity="0"></use><g><use xlink:href="#aGPkqwcfK" opacity="1" fill-opacity="0" stroke="#ff69b4" stroke-width="2" stroke-opacity="1"></use></g></g><g><g clip-path="url(#clipb44n7PySox)"><use xlink:href="#c1iDFMIXl" opacity="1" fill-opacity="0" stroke="#0000f9" stroke-width="10" stroke-opacity="1"></use></g></g><g><use xlink:href="#a27eamQ8gg" opacity="1" fill="#000000" fill-opacity="0"></use><g><use xlink:href="#a27eamQ8gg" opacity="1" fill-opacity="0" stroke="#ff0000" stroke-width="3" stroke-opacity="1"></use></g></g><g><use xlink:href="#av9V21YeG" opacity="1" fill="#000000" fill-opacity="0"></use><g><use xlink:href="#av9V21YeG" opacity="1" fill-opacity="0" stroke="#000000" stroke-width="1" stroke-opacity="0"></use></g></g><g><use xlink:href="#c1vfexG4fq" opacity="1" fill="#000000" fill-opacity="0"></use><g><use xlink:href="#c1vfexG4fq" opacity="1" fill-opacity="0" stroke="#008018" stroke-width="2" stroke-opacity="1"></use></g></g><g><use xlink:href="#e1x8hwZvO3" opacity="1" fill="#000000" fill-opacity="0"></use><g><use xlink:href="#e1x8hwZvO3" opacity="1" fill-opacity="0" stroke="#000000" stroke-width="1" stroke-opacity="0"></use></g></g><g><use xlink:href="#i4Z5w5iaAS" opacity="1" fill="#000000" fill-opacity="0"></use><g><use xlink:href="#i4Z5w5iaAS" opacity="1" fill-opacity="0" stroke="#ffff41" stroke-width="3" stroke-opacity="1"></use></g></g><g><use xlink:href="#bUpidOOUp" opacity="1" fill="#000000" fill-opacity="0"></use><g><use xlink:href="#bUpidOOUp" opacity="1" fill-opacity="0" stroke="#ff8e00" stroke-width="2" stroke-opacity="1"></use></g></g><g><use xlink:href="#jsmqk6WXR" opacity="1" fill="#000000" fill-opacity="0"></use><g><use xlink:href="#jsmqk6WXR" opacity="1" fill-opacity="0" stroke="#000000" stroke-width="1" stroke-opacity="0"></use></g></g><g><use xlink:href="#cgtP2efUF" opacity="1" fill="#000000" fill-opacity="0"></use><g><use xlink:href="#cgtP2efUF" opacity="1" fill-opacity="0" stroke="#000000" stroke-width="1" stroke-opacity="0"></use></g></g><g><use xlink:href="#e8VTTboCu" opacity="1" fill="#000000" fill-opacity="0.3"></use><g clip-path="url(#clipcc0zTR4Ft)"><use xlink:href="#e8VTTboCu" opacity="1" fill-opacity="0" stroke="#ff8e00" stroke-width="10" stroke-opacity="1"></use></g></g><g><use xlink:href="#a58Xnw16aZ" opacity="1" fill="#000000" fill-opacity="0"></use><g><use xlink:href="#a58Xnw16aZ" opacity="1" fill-opacity="0" stroke="#8e008e" stroke-width="5" stroke-opacity="1"></use></g></g><g><g clip-path="url(#clipcrx8csdD9)"><use xlink:href="#a1jpgepPUz" opacity="1" fill-opacity="0" stroke="#00c0c0" stroke-width="10" stroke-opacity="1"></use></g></g><g><g clip-path="url(#clipbd0lMlelE)"><use xlink:href="#h4nmSQPxg" opacity="1" fill-opacity="0" stroke="#ff0000" stroke-width="10" stroke-opacity="1"></use></g></g><g><use xlink:href="#a2NWsH8Oky" opacity="1" fill="#6c63ff" fill-opacity="1"></use><g><use xlink:href="#a2NWsH8Oky" opacity="1" fill-opacity="0" stroke="#000000" stroke-width="1" stroke-opacity="0"></use></g></g><g><g clip-path="url(#clipb72QI6F0)"><use xlink:href="#a2w7lwbks" opacity="1" fill-opacity="0" stroke="#8e008e" stroke-width="10" stroke-opacity="1"></use></g></g><g><g clip-path="url(#clipaXuleTDbT)"><use xlink:href="#asyXewEHy" opacity="1" fill-opacity="0" stroke="#a51010" stroke-width="10" stroke-opacity="1"></use></g></g><g><use xlink:href="#d3bBfSfiL" opacity="1" fill="#000000" fill-opacity="0"></use><g><use xlink:href="#d3bBfSfiL" opacity="1" fill-opacity="0" stroke="#0000f9" stroke-width="2" stroke-opacity="1"></use></g></g><g><g clip-path="url(#clipc2KsHV7WJD)"><use xlink:href="#bIk3yPGQZ" opacity="1" fill-opacity="0" stroke="#ffff41" stroke-width="10" stroke-opacity="1"></use></g></g><g><g clip-path="url(#clipf1NzQUFA9H)"><use xlink:href="#g17Zl18Att" opacity="1" fill-opacity="0" stroke="#ff69b4" stroke-width="12" stroke-opacity="1"></use></g></g><g><use xlink:href="#adBtU86VE" opacity="1" fill="#000000" fill-opacity="0"></use><g><use xlink:href="#adBtU86VE" opacity="1" fill-opacity="0" stroke="#000000" stroke-width="1" stroke-opacity="0"></use></g></g><g><use xlink:href="#c238JZzYjl" opacity="1" fill="#000000" fill-opacity="0"></use><g><use xlink:href="#c238JZzYjl" opacity="1" fill-opacity="0" stroke="#00c0c0" stroke-width="5" stroke-opacity="1"></use></g></g><g><g clip-path="url(#clipbBnqWMDRu)"><use xlink:href="#bgqIetq4O" opacity="1" fill-opacity="0" stroke="#008018" stroke-width="10" stroke-opacity="1"></use></g></g></g></g></svg>