<?xml version="1.0" encoding="UTF-8"?><svg version="1.1" width="185px" height="229px" viewBox="0 0 185.0 229.0" xmlns="http://www.w3.org/2000/svg" xmlns:xlink="http://www.w3.org/1999/xlink"><defs><clipPath id="i0"><path d="M185,0 L185,229 L0,229 L0,0 L185,0 Z"></path></clipPath><clipPath id="i1"><path d="M3.877,0 L3.877,19.628 L3.98,19.628 L12.659,8.233 L17.191,8.233 L9.659,17.549 L18.477,32.976 L13.945,32.976 L7.077,20.741 L3.877,24.629 L3.877,32.976 L0,32.976 L0,0 L3.877,0 Z"></path></clipPath><clipPath id="i2"><path d="M8.905,0 C16.0874615,0 16.4189598,4.11967621 16.4342597,6.73895717 L16.4349726,6.98756346 C16.435,7.02815432 16.435,7.06830769 16.435,7.108 L16.4357989,21.1806759 C16.4441871,22.0923611 16.5406522,22.901 17.65,22.901 C18.151,22.901 18.383,22.814 18.569,22.681 L18.569,25.445 C18.289,25.497 17.283,25.683 16.312,25.683 L16.0735303,25.6825358 C14.6290139,25.6741801 12.9694737,25.5154211 12.798,22.499 L12.699,22.499 C11.449,24.712 9.063,26.049 6.751,26.049 C2.124,26.049 0,23.272 0,18.843 C0,15.38 1.469,12.978 4.668,12.007 L9.883,10.437 C12.699,9.554 12.699,8.769 12.699,6.686 C12.699,4.387 11.319,3.049 8.719,3.049 C4.66333333,3.049 4.49434722,6.70424306 4.48730613,7.77632523 L4.487,8.13 L0.602,8.13 C0.602,2.485 3,0 8.905,0 Z M12.569,11.916 C11.133,13.442 7.714,13.763 5.966,14.823 C4.704,15.616 4.069,16.579 4.069,18.748 C4.069,21.249 4.941,23.004 7.571,23.004 C10.119,23.004 12.569,20.831 12.569,18.287 L12.569,11.916 Z"></path></clipPath><clipPath id="i3"><path d="M17.221,0 L17.221,32.976 L13.522,32.976 L13.522,29.931 L13.435,29.931 C12.918,31.777 10.769,33.63 8.082,33.63 C2.221,33.63 0,28.412 0,20.598 C0,15.431 0.82,7.581 7.791,7.581 C10.015,7.581 12.37,8.914 13.25,11.049 L13.348,11.049 L13.348,0 L17.221,0 Z M8.587,10.907 C5.05268519,10.907 4.09039712,14.5511862 4.05596886,20.2719745 L4.055,20.598 C4.055,26.511 4.986,30.305 8.587,30.305 C12.8053036,30.305 13.5587474,26.3867761 13.584311,20.8988822 L13.585,20.598 C13.585,15.798 12.737,10.907 8.587,10.907 Z"></path></clipPath><clipPath id="i4"><path d="M8.919,0 C16.0852462,0 16.415996,4.11967621 16.4312614,6.73895717 L16.4319726,6.98756346 C16.432,7.02815432 16.432,7.06830769 16.432,7.108 L16.4327884,21.1806759 C16.4410662,22.0923611 16.5362609,22.901 17.631,22.901 C18.148,22.901 18.385,22.814 18.567,22.681 L18.567,25.445 C18.287,25.497 17.281,25.683 16.302,25.683 L16.0668853,25.6825358 C14.6408753,25.6741801 12.9712632,25.5154211 12.796,22.499 L12.702,22.499 C11.451,24.712 9.052,26.049 6.749,26.049 C2.123,26.049 0,23.272 0,18.843 C0,15.38 1.483,12.978 4.671,12.007 L9.884,10.437 C12.702,9.554 12.702,8.769 12.702,6.686 C12.702,4.387 11.317,3.049 8.737,3.049 C4.469,3.049 4.469,7.029 4.469,7.901 L4.469,8.13 L0.604,8.13 C0.604,2.485 3.013,0 8.919,0 Z M12.567,11.916 C11.131,13.442 7.715,13.763 5.957,14.823 C4.706,15.616 4.055,16.579 4.055,18.748 C4.055,21.249 4.939,23.004 7.574,23.004 C10.118,23.004 12.567,20.831 12.567,18.287 L12.567,11.916 Z"></path></clipPath><clipPath id="i5"><path d="M4.253,0 L4.253,4.896 L0,4.896 L0,0 L4.253,0 Z"></path></clipPath><clipPath id="i6"><path d="M8.915,0 C16.0888769,0 16.4199789,4.11967621 16.4352606,6.73895717 L16.436,20.918 C16.436,21.931 16.436,22.901 17.643,22.901 C18.148,22.901 18.377,22.814 18.563,22.681 L18.563,25.445 C18.283,25.497 17.277,25.683 16.31,25.683 L16.0714199,25.6825358 C14.6265125,25.6741801 12.9712105,25.5154211 12.795,22.499 L12.701,22.499 C11.459,24.712 9.06,26.049 6.745,26.049 C2.134,26.049 0,23.272 0,18.843 C0,15.38 1.471,12.978 4.663,12.007 L9.885,10.437 C12.5353529,9.60594118 12.6912561,8.86169204 12.7004268,7.04039833 L12.701,6.686 C12.701,4.387 11.317,3.049 8.721,3.049 C4.481,3.049 4.481,7.029 4.481,7.901 L4.481,8.13 L0.604,8.13 C0.604,2.485 3.001,0 8.915,0 Z M12.563,11.916 C11.135,13.442 7.715,13.763 5.964,14.823 C4.713,15.616 4.067,16.579 4.067,18.748 C4.067,21.249 4.934,23.004 7.566,23.004 C10.114,23.004 12.563,20.831 12.563,18.287 L12.563,11.916 Z"></path></clipPath><clipPath id="i7"><path d="M3.881,8.232 L3.881,32.975 L0,32.975 L0,8.232 L3.881,8.232 Z M3.881,0 L3.881,4.434 L0,4.434 L0,0 L3.881,0 Z"></path></clipPath><clipPath id="i8"><path d="M27.305,0 L27.305,107.836 L0,81.796 L0,0 L27.305,0 Z"></path></clipPath><clipPath id="i9"><path d="M48.063,0 L19.311,43.539 L0,23.922 L15.699,0 L48.063,0 Z"></path></clipPath><clipPath id="i10"><path d="M16.567,0 L90.217,74.201 L49.671,74.201 L0,24.052 L16.567,0 Z"></path></clipPath><clipPath id="i11"><path d="M92.839,0 C144.031,0 185.679,41.648 185.679,92.84 C185.679,144.032 144.031,185.679 92.839,185.679 C41.647,185.679 0,144.032 0,92.84 C0,41.648 41.647,0 92.839,0 Z M92.839,15 C49.918,15 15,49.919 15,92.84 C15,135.761 49.918,170.679 92.839,170.679 C135.76,170.679 170.679,135.761 170.679,92.84 C170.679,49.919 135.76,15 92.839,15 Z"></path></clipPath></defs><g clip-path="url(#i0)"><g transform="translate(33.17189999999975 195.0172999999971)"><g clip-path="url(#i1)"><polygon points="0,0 18.477,0 18.477,32.976 0,32.976 0,0" stroke="none" fill="rgba(0, 0, 0, 0.87)"></polygon></g></g><g transform="translate(52.47889999999981 202.5987999999993)"><g clip-path="url(#i2)"><polygon points="0,0 18.569,0 18.569,26.049 0,26.049 0,0" stroke="none" fill="rgba(0, 0, 0, 0.87)"></polygon></g></g><g transform="translate(73.2602000000004 195.01739999999927)"><g clip-path="url(#i3)"><polygon points="0,0 17.221,0 17.221,33.63 0,33.63 0,0" stroke="none" fill="rgba(0, 0, 0, 0.87)"></polygon></g></g><g transform="translate(94.35880000000043 202.5987999999993)"><g clip-path="url(#i4)"><polygon points="0,0 18.567,0 18.567,26.049 0,26.049 0,0" stroke="none" fill="rgba(0, 0, 0, 0.87)"></polygon></g></g><g transform="translate(116.9399999999999 223.09800000000212)"><g clip-path="url(#i5)"><polygon points="0,0 4.253,0 4.253,4.896 0,4.896 0,0" stroke="none" fill="rgba(0, 0, 0, 0.87)"></polygon></g></g><g transform="translate(125.94189999999992 202.5987999999993)"><g clip-path="url(#i6)"><polygon points="0,0 18.563,0 18.563,26.049 0,26.049 0,0" stroke="none" fill="rgba(0, 0, 0, 0.87)"></polygon></g></g><g transform="translate(147.8730000000002 195.0179999999993)"><g clip-path="url(#i7)"><polygon points="0,0 3.881,0 3.881,32.975 0,32.975 0,0" stroke="none" fill="rgba(0, 0, 0, 0.87)"></polygon></g></g><g transform="translate(35.57049999999995 42.43859999999916)"><g clip-path="url(#i8)"><polygon points="0,0 27.305,0 27.305,107.836 0,107.836 0,0" stroke="none" fill="rgba(0, 0, 0, 0.87)"></polygon></g></g><g transform="translate(89.44580000000047 42.4385999999962)"><g clip-path="url(#i9)"><polygon points="0,0 48.063,0 48.063,43.539 0,43.539 0,0" stroke="none" fill="rgba(0, 0, 0, 0.87)"></polygon></g></g><g transform="translate(68.92330000000021 71.95109999999886)"><g clip-path="url(#i10)"><polygon points="0,0 90.217,0 90.217,74.201 0,74.201 0,0" stroke="none" fill="rgba(0, 0, 0, 0.87)"></polygon></g></g><g transform="translate(-0.3760999999999086 0.376599999997822)"><g clip-path="url(#i11)"><polygon points="0.3761,0 185.3761,0 185.3761,185.679 0.3761,185.679 0.3761,0" stroke="none" fill="rgba(0, 0, 0, 0.87)"></polygon></g></g></g></svg>